<svg id="svg" version="1.1" xmlns="http://www.w3.org/2000/svg" xmlns:xlink="http://www.w3.org/1999/xlink" width="400" height="446.5608465608465" viewBox="0, 0, 400,446.5608465608465"><g id="svgg"><path id="path0" d="M274.000 93.689 C 273.225 94.099,272.978 94.576,272.900 95.809 C 272.402 103.741,271.295 109.540,269.509 113.577 C 269.077 114.555,268.559 116.895,268.358 118.777 C 268.013 122.009,267.793 123.299,266.853 127.600 C 265.442 134.050,260.302 142.429,253.680 149.074 C 249.254 153.515,248.400 154.768,248.400 156.819 C 248.400 158.282,247.561 158.386,256.372 155.829 C 271.117 151.550,278.795 147.258,283.477 140.677 C 284.756 138.880,286.261 138.764,287.085 140.400 C 288.210 142.634,287.610 163.818,286.171 172.663 C 284.571 182.501,277.311 202.950,274.627 205.178 C 274.276 205.469,272.709 207.610,271.146 209.936 C 265.399 218.483,256.632 227.801,249.200 233.258 C 246.246 235.428,240.771 237.629,232.600 239.932 C 223.494 242.500,211.900 242.539,206.520 240.021 C 202.756 238.260,200.836 240.069,196.168 249.779 C 194.946 252.321,193.794 254.400,193.608 254.400 C 192.987 254.400,192.145 247.006,192.686 246.297 C 192.895 246.024,193.306 245.170,193.599 244.400 C 194.420 242.243,198.265 234.515,199.126 233.291 C 199.549 232.691,200.853 230.490,202.024 228.400 C 209.249 215.504,218.119 205.605,226.800 200.751 C 229.770 199.091,233.674 196.847,235.476 195.766 C 237.278 194.685,240.238 192.990,242.053 192.000 C 247.865 188.830,251.353 186.710,253.200 185.225 C 254.190 184.428,256.502 182.882,258.338 181.788 C 264.577 178.072,269.028 172.534,268.722 168.867 C 268.525 166.494,267.257 166.861,266.196 169.600 C 264.432 174.153,262.009 176.717,256.400 179.968 C 254.750 180.924,252.860 182.206,252.200 182.817 C 250.709 184.196,246.250 186.861,238.000 191.302 C 236.350 192.190,234.522 193.250,233.938 193.658 C 233.354 194.066,232.774 194.400,232.648 194.400 C 232.523 194.400,231.241 194.940,229.800 195.600 C 228.359 196.260,227.061 196.800,226.917 196.800 C 226.772 196.800,224.931 197.833,222.827 199.096 C 212.744 205.146,200.749 221.251,192.583 239.700 C 190.721 243.906,190.938 243.868,189.142 240.298 C 187.270 236.579,187.183 236.157,186.799 229.000 C 186.622 225.700,186.195 221.650,185.850 220.000 C 184.501 213.539,184.985 203.145,187.264 189.600 C 188.794 180.510,194.563 159.985,196.847 155.508 C 199.026 151.237,205.388 142.960,209.375 139.210 C 213.515 135.315,215.897 132.887,218.965 129.434 C 221.337 126.763,227.531 122.033,228.714 121.989 C 229.106 121.975,232.965 119.027,235.768 116.600 C 237.039 115.500,239.579 112.843,241.412 110.696 C 247.881 103.119,251.023 99.921,253.726 98.159 C 256.117 96.601,256.436 96.249,256.326 95.291 C 256.113 93.446,253.943 93.839,250.254 96.389 C 247.029 98.618,246.884 98.765,240.534 106.224 C 234.535 113.269,231.662 115.875,224.975 120.332 C 219.778 123.797,218.381 124.970,214.802 128.874 C 212.521 131.363,209.652 134.283,208.427 135.362 C 205.938 137.554,204.653 138.920,203.687 140.400 C 201.856 143.204,197.511 149.176,196.984 149.614 C 196.071 150.371,195.954 149.939,196.429 147.565 C 197.650 141.453,196.322 118.389,194.346 111.400 C 192.991 106.605,192.341 104.819,190.012 99.500 C 188.761 96.644,187.105 97.594,182.214 103.974 C 181.781 104.538,181.331 105.090,181.213 105.200 C 180.057 106.275,177.067 111.810,175.746 115.317 C 175.398 116.243,174.840 117.613,174.508 118.363 C 171.029 126.202,171.059 125.577,173.936 130.336 C 175.221 132.461,177.812 137.185,179.694 140.833 L 183.115 147.465 184.757 156.033 C 185.660 160.745,186.569 165.500,186.776 166.600 C 187.717 171.576,187.668 173.230,186.394 179.600 C 183.982 191.664,182.812 199.656,182.777 204.314 C 182.748 208.168,182.347 210.475,181.774 210.088 C 180.573 209.278,176.090 201.454,175.190 198.600 C 174.279 195.711,171.590 190.231,170.283 188.600 C 169.577 187.720,167.048 184.390,164.663 181.200 C 162.278 178.010,158.764 173.780,156.853 171.800 C 149.992 164.688,146.912 160.950,139.431 150.659 C 135.189 144.822,133.607 141.261,132.388 134.800 C 131.683 131.066,130.675 127.571,128.985 123.000 C 126.263 115.642,125.260 112.203,124.672 108.214 C 124.042 103.944,123.394 102.854,121.945 103.630 C 120.237 104.543,121.362 111.357,124.860 121.293 C 126.197 125.092,127.726 130.000,128.256 132.200 C 131.575 145.955,133.386 149.315,145.793 164.724 C 148.571 168.175,151.159 171.030,153.538 173.271 C 156.086 175.671,158.990 179.237,162.113 183.800 C 162.716 184.680,164.301 186.660,165.637 188.200 C 167.489 190.334,168.953 192.772,171.795 198.453 C 173.846 202.552,176.713 207.739,178.167 209.980 C 181.478 215.081,182.171 216.441,182.978 219.417 C 183.660 221.937,184.333 232.000,183.818 232.000 C 183.652 232.000,181.150 229.700,178.258 226.890 C 172.554 221.347,167.592 217.413,164.042 215.621 C 154.532 210.821,138.301 210.224,130.047 214.371 C 128.811 214.992,126.496 215.968,124.903 216.540 C 121.190 217.874,119.284 218.849,115.696 221.251 C 109.168 225.621,104.889 227.225,95.590 228.786 C 87.941 230.069,82.400 232.630,82.400 234.882 C 82.400 236.482,83.677 236.326,89.050 234.071 C 90.617 233.413,93.590 232.587,95.656 232.235 C 106.055 230.463,109.953 229.008,117.815 223.962 C 120.694 222.114,123.572 220.598,124.974 220.190 C 126.264 219.815,128.816 218.820,130.646 217.979 C 145.245 211.266,158.992 213.489,171.800 224.634 C 182.256 233.732,187.097 240.288,189.498 248.600 C 190.269 251.272,190.623 263.776,190.019 267.000 C 189.771 268.320,189.396 270.330,189.184 271.467 C 188.972 272.604,188.509 275.934,188.154 278.867 C 187.799 281.800,187.366 285.280,187.193 286.600 C 187.020 287.920,186.688 290.620,186.456 292.600 C 185.532 300.494,184.704 304.232,182.379 311.000 C 179.612 319.058,172.939 332.821,169.676 337.200 C 168.618 338.621,162.435 346.033,162.003 346.400 C 161.873 346.510,159.953 348.760,157.736 351.400 C 153.641 356.275,150.988 358.939,145.600 363.588 C 143.950 365.012,140.440 368.289,137.800 370.871 C 135.160 373.452,132.285 376.157,131.411 376.882 C 130.537 377.607,128.728 379.190,127.390 380.400 C 126.053 381.610,124.455 382.960,123.841 383.400 C 122.218 384.561,122.960 385.818,126.740 388.310 C 135.133 393.843,149.951 399.477,162.800 402.021 C 169.906 403.428,170.513 403.554,173.400 404.223 C 181.825 406.177,182.489 406.298,190.000 407.255 C 202.156 408.804,220.831 408.399,228.400 406.422 C 232.170 405.438,238.932 403.366,240.200 402.807 C 240.640 402.613,242.530 401.982,244.400 401.406 C 246.270 400.829,248.520 400.034,249.400 399.640 C 250.280 399.245,251.990 398.600,253.200 398.207 C 255.920 397.322,256.512 397.096,258.917 396.030 C 259.971 395.562,261.590 394.878,262.513 394.508 C 268.664 392.047,269.204 390.651,265.425 386.983 C 261.988 383.647,255.677 372.873,255.009 369.200 C 254.151 364.483,253.926 361.565,253.729 352.600 C 253.521 343.108,253.823 337.160,254.786 331.800 C 254.984 330.700,255.327 328.630,255.550 327.200 C 256.586 320.538,257.325 316.840,257.987 315.000 C 258.383 313.900,259.190 310.930,259.780 308.400 C 262.606 296.273,266.329 288.635,269.844 287.753 C 271.258 287.398,273.660 287.801,277.400 289.018 C 281.071 290.214,285.139 291.283,288.600 291.962 C 289.920 292.221,291.768 292.605,292.706 292.816 C 297.704 293.941,305.718 293.092,308.600 291.133 C 312.926 288.192,314.944 280.134,312.943 273.788 C 312.112 271.149,312.372 270.163,314.539 267.748 C 316.840 265.184,317.069 264.360,316.032 262.372 C 314.823 260.051,314.972 258.882,316.786 256.468 C 318.947 253.592,319.124 252.332,317.781 249.396 C 314.814 242.910,316.106 240.300,325.400 234.006 C 329.881 230.971,331.332 228.665,330.413 226.040 C 329.960 224.747,325.649 218.691,323.670 216.567 C 320.942 213.639,317.380 207.747,315.609 203.232 C 315.141 202.040,314.412 200.305,313.990 199.377 C 313.567 198.449,313.036 196.860,312.810 195.845 C 312.585 194.830,312.220 193.187,312.000 192.194 C 311.110 188.177,311.942 183.532,314.793 176.600 C 316.028 173.599,317.252 170.174,318.011 167.600 C 318.498 165.950,319.297 163.340,319.788 161.800 C 323.763 149.314,324.052 140.516,320.885 128.400 C 317.374 114.973,301.880 97.433,291.200 94.795 C 286.141 93.545,275.558 92.865,274.000 93.689 " stroke="none" fill="#045757" fill-rule="evenodd"></path><path id="path1" d="M269.049 68.700 C 266.274 73.030,251.597 81.342,241.000 84.586 C 217.103 91.902,209.128 99.710,204.985 119.848 C 204.160 123.862,203.202 132.606,203.201 136.138 L 203.200 140.476 204.500 138.930 C 205.215 138.080,206.694 136.578,207.788 135.592 C 208.881 134.607,211.033 132.450,212.570 130.800 C 217.930 125.046,220.279 122.981,224.625 120.207 C 230.624 116.376,235.476 112.012,240.622 105.820 C 241.710 104.512,243.156 102.802,243.836 102.020 C 244.515 101.239,245.505 100.088,246.036 99.462 C 247.411 97.839,253.877 93.600,254.977 93.600 C 257.821 93.600,257.217 96.267,253.893 98.386 C 251.480 99.924,248.001 103.446,242.259 110.167 C 237.189 116.101,233.756 118.987,225.389 124.353 C 222.921 125.935,220.894 127.662,218.989 129.803 C 217.455 131.527,215.036 134.032,213.613 135.369 C 208.511 140.164,205.787 143.058,205.017 144.503 L 204.234 145.971 205.137 146.933 C 208.790 150.822,216.501 151.660,226.000 149.202 C 226.770 149.003,229.290 148.366,231.600 147.787 C 253.416 142.318,268.747 124.518,272.068 100.800 C 272.719 96.153,272.694 73.783,272.032 67.500 C 271.928 66.522,269.929 67.326,269.049 68.700 M105.477 84.545 C 105.362 84.844,105.747 86.059,106.334 87.244 C 107.535 89.673,107.744 98.616,106.823 108.200 C 105.639 120.522,106.721 138.864,109.241 149.200 C 113.078 164.940,121.498 177.814,132.840 185.283 C 142.541 191.672,163.013 199.600,169.809 199.600 L 171.954 199.600 170.349 196.077 C 168.712 192.484,166.575 189.322,163.635 186.145 C 162.730 185.167,161.515 183.609,160.935 182.683 C 160.355 181.758,159.754 180.910,159.600 180.800 C 159.446 180.690,158.865 179.874,158.310 178.987 C 157.287 177.354,154.790 174.666,151.693 171.864 C 148.785 169.233,137.329 154.477,133.489 148.416 C 131.730 145.640,128.800 137.829,128.800 135.916 C 128.800 134.210,127.173 128.495,125.009 122.600 C 120.526 110.388,119.620 103.200,122.565 103.200 C 123.937 103.200,124.343 103.931,124.804 107.235 C 125.407 111.559,126.490 115.551,128.592 121.200 C 130.975 127.601,131.833 130.375,132.429 133.600 C 133.086 137.158,134.722 142.677,135.669 144.535 C 137.856 148.822,148.785 162.887,155.146 169.600 C 158.169 172.790,162.512 177.920,164.797 181.000 C 167.082 184.080,169.059 186.690,169.189 186.800 C 169.589 187.137,172.400 191.093,172.400 191.319 C 172.400 191.436,173.096 192.995,173.946 194.785 L 175.492 198.040 177.777 195.736 C 185.031 188.424,188.375 176.809,186.281 166.200 C 185.934 164.440,184.985 159.490,184.172 155.200 C 182.830 148.116,182.539 147.125,181.002 144.400 C 180.072 142.750,178.663 140.050,177.872 138.400 C 176.646 135.845,174.152 131.457,171.164 126.600 C 170.758 125.940,169.752 124.065,168.929 122.433 C 165.473 115.581,154.881 106.620,143.800 101.174 C 139.232 98.929,136.849 97.951,127.200 94.356 C 121.474 92.224,111.367 87.172,109.336 85.428 C 107.632 83.965,105.855 83.558,105.477 84.545 M282.746 142.323 C 277.356 148.922,261.813 156.249,248.200 158.608 C 246.906 158.832,235.462 163.123,232.060 164.660 C 209.539 174.832,201.842 184.589,198.187 207.600 C 197.421 212.421,197.231 225.193,197.901 226.800 L 198.318 227.800 198.717 226.800 C 199.237 225.500,204.569 217.593,208.024 213.000 C 211.746 208.052,217.257 202.294,219.737 200.761 C 220.872 200.060,222.520 199.007,223.400 198.421 C 224.280 197.834,226.800 196.576,229.000 195.624 C 231.200 194.673,233.450 193.581,234.000 193.197 C 234.550 192.814,236.335 191.830,237.968 191.011 C 239.600 190.192,241.580 189.117,242.368 188.622 C 243.155 188.127,245.150 186.943,246.800 185.992 C 248.450 185.041,250.610 183.608,251.600 182.809 C 252.590 182.010,254.882 180.487,256.692 179.425 C 261.213 176.775,263.753 174.245,265.248 170.904 C 266.993 167.004,266.996 167.000,268.044 167.000 C 268.866 167.000,269.018 167.217,269.127 168.556 C 269.450 172.489,264.666 178.527,258.345 182.165 C 256.505 183.224,254.460 184.597,253.800 185.217 C 253.140 185.837,251.475 186.986,250.100 187.772 C 248.725 188.557,246.475 189.852,245.100 190.649 C 243.725 191.445,241.250 192.822,239.600 193.707 C 237.950 194.592,236.122 195.650,235.538 196.058 C 234.954 196.466,234.352 196.800,234.200 196.800 C 234.048 196.800,233.446 197.134,232.862 197.543 C 232.278 197.951,230.990 198.736,230.000 199.286 C 229.010 199.837,227.480 200.697,226.600 201.197 C 225.720 201.698,224.280 202.481,223.400 202.936 C 218.511 205.466,207.427 219.105,201.447 229.949 C 199.178 234.063,199.176 233.916,201.522 236.165 C 206.237 240.683,217.649 242.777,226.723 240.789 C 227.755 240.562,229.500 240.180,230.600 239.938 C 234.087 239.173,242.488 236.400,244.989 235.188 C 252.034 231.777,263.647 220.266,270.912 209.493 C 272.624 206.955,274.291 204.656,274.617 204.386 C 276.141 203.121,279.786 193.968,283.532 182.000 C 286.053 173.943,287.200 163.992,287.200 150.166 C 287.200 138.389,286.692 137.494,282.746 142.323 M105.200 198.624 C 91.912 201.488,79.530 215.318,72.405 235.252 C 71.772 237.022,70.328 239.881,69.196 241.606 C 66.644 245.493,66.598 246.656,69.000 246.487 C 77.063 245.920,86.965 246.625,99.589 248.664 C 111.740 250.627,119.801 248.721,130.200 241.425 C 137.469 236.325,141.224 232.073,142.581 227.406 C 143.364 224.712,143.456 215.806,142.706 215.342 C 141.442 214.561,135.112 216.075,130.734 218.205 C 129.141 218.980,126.660 219.967,125.219 220.398 C 123.566 220.893,121.124 222.161,118.600 223.837 C 111.339 228.656,105.644 230.848,96.400 232.382 C 92.426 233.041,90.469 233.616,87.250 235.069 C 82.544 237.193,80.059 236.010,83.101 233.094 C 85.452 230.843,89.120 229.638,98.600 228.005 C 105.136 226.879,109.525 225.007,116.983 220.166 C 119.311 218.655,122.052 217.247,123.583 216.776 C 125.022 216.333,127.204 215.449,128.430 214.813 C 130.922 213.520,134.926 212.186,137.500 211.791 C 139.686 211.455,139.686 211.454,136.500 208.162 C 128.381 199.773,116.569 196.173,105.200 198.624 " stroke="none" fill="#06b2b2" fill-rule="evenodd"></path><path id="path2" d="M185.376 23.961 C 185.511 24.180,184.305 24.423,182.505 24.540 C 177.551 24.861,171.860 25.597,171.105 26.015 C 170.723 26.227,169.789 26.400,169.029 26.400 C 168.269 26.400,167.536 26.580,167.400 26.800 C 167.264 27.020,166.544 27.200,165.800 27.200 C 165.056 27.200,164.336 27.380,164.200 27.600 C 164.064 27.820,163.498 28.000,162.942 28.000 C 161.630 28.000,156.640 29.310,156.467 29.700 C 156.393 29.865,155.808 30.000,155.167 30.000 C 154.525 30.000,154.000 30.180,154.000 30.400 C 154.000 30.620,153.505 30.801,152.900 30.802 C 152.295 30.804,151.284 31.074,150.654 31.402 C 150.024 31.731,149.169 32.000,148.754 32.000 C 148.339 32.000,148.000 32.180,148.000 32.400 C 148.000 32.620,147.449 32.800,146.776 32.800 C 146.063 32.800,145.656 32.967,145.800 33.200 C 145.940 33.426,145.612 33.600,145.047 33.600 C 144.497 33.600,143.936 33.780,143.800 34.000 C 143.664 34.220,143.248 34.401,142.876 34.402 C 142.504 34.404,141.684 34.674,141.054 35.002 C 140.424 35.331,139.659 35.600,139.354 35.600 C 139.049 35.600,138.800 35.780,138.800 36.000 C 138.800 36.220,138.440 36.400,138.000 36.400 C 137.560 36.400,137.200 36.572,137.200 36.782 C 137.200 36.992,136.570 37.282,135.800 37.426 C 135.030 37.571,134.400 37.849,134.400 38.045 C 134.400 38.240,134.166 38.400,133.880 38.400 C 133.177 38.400,131.207 39.334,131.203 39.668 C 131.201 39.816,130.660 40.055,130.000 40.200 C 129.340 40.345,128.800 40.629,128.800 40.832 C 128.800 41.034,128.440 41.200,128.000 41.200 C 127.560 41.200,127.200 41.380,127.200 41.600 C 127.200 41.820,126.930 42.000,126.600 42.000 C 126.270 42.000,126.000 42.180,126.000 42.400 C 126.000 42.620,125.724 42.800,125.386 42.800 C 124.845 42.800,122.951 43.811,122.400 44.393 C 122.290 44.509,121.165 45.136,119.900 45.787 C 118.635 46.437,117.600 47.111,117.600 47.284 C 117.600 47.458,117.330 47.600,117.000 47.600 C 116.670 47.600,116.400 47.780,116.400 48.000 C 116.400 48.220,116.130 48.400,115.800 48.400 C 115.470 48.400,115.200 48.560,115.200 48.757 C 115.200 48.953,114.750 49.226,114.200 49.364 C 113.650 49.502,113.200 49.792,113.200 50.008 C 113.200 50.223,112.970 50.400,112.688 50.400 C 112.407 50.400,111.917 50.760,111.600 51.200 C 111.283 51.640,110.821 52.000,110.574 52.000 C 110.327 52.000,109.601 52.450,108.962 53.000 C 108.323 53.549,107.590 53.999,107.333 54.000 C 107.077 54.000,106.807 54.142,106.733 54.317 C 106.660 54.491,105.886 55.166,105.013 55.817 C 102.784 57.479,102.167 57.996,100.377 59.700 C 99.510 60.525,98.629 61.200,98.418 61.200 C 98.208 61.200,96.925 62.280,95.568 63.600 C 94.210 64.920,93.026 66.000,92.935 66.000 C 92.519 66.000,82.864 75.514,81.878 76.897 C 81.481 77.453,79.996 79.109,78.578 80.577 C 77.160 82.045,75.999 83.461,75.999 83.723 C 75.998 83.985,75.457 84.560,74.797 85.000 C 74.136 85.440,73.486 86.160,73.351 86.600 C 73.217 87.040,72.498 87.985,71.754 88.699 C 71.009 89.414,70.400 90.203,70.400 90.452 C 70.400 90.702,70.083 91.197,69.696 91.553 C 69.308 91.909,68.463 92.920,67.817 93.800 C 67.171 94.680,66.543 95.490,66.421 95.600 C 66.101 95.889,65.296 97.204,64.523 98.700 C 64.154 99.415,63.705 100.000,63.526 100.000 C 63.347 100.000,63.200 100.204,63.200 100.453 C 63.200 100.702,62.866 101.197,62.457 101.553 C 62.049 101.909,61.587 102.605,61.430 103.100 C 61.274 103.595,60.978 104.000,60.773 104.000 C 60.568 104.000,60.400 104.278,60.400 104.617 C 60.400 104.956,60.033 105.627,59.585 106.109 C 59.136 106.590,58.666 107.393,58.541 107.892 C 58.416 108.391,58.175 108.800,58.005 108.800 C 57.836 108.800,57.473 109.340,57.200 110.000 C 56.927 110.660,56.582 111.200,56.433 111.200 C 56.285 111.200,55.830 112.010,55.422 113.000 C 55.013 113.990,54.527 114.800,54.340 114.800 C 54.153 114.800,54.000 115.070,54.000 115.400 C 54.000 115.730,53.820 116.000,53.600 116.000 C 53.380 116.000,53.200 116.360,53.200 116.800 C 53.200 117.240,53.028 117.600,52.818 117.600 C 52.608 117.600,52.318 118.230,52.174 119.000 C 52.029 119.770,51.751 120.400,51.555 120.400 C 51.360 120.400,51.200 120.670,51.200 121.000 C 51.200 121.330,51.020 121.600,50.800 121.600 C 50.580 121.600,50.400 121.960,50.400 122.400 C 50.400 122.840,50.228 123.200,50.018 123.200 C 49.808 123.200,49.518 123.830,49.374 124.600 C 49.229 125.370,48.951 126.000,48.755 126.000 C 48.560 126.000,48.400 126.270,48.400 126.600 C 48.400 126.930,48.220 127.200,48.000 127.200 C 47.780 127.200,47.600 127.560,47.600 128.000 C 47.600 128.440,47.428 128.800,47.218 128.800 C 47.008 128.800,46.718 129.430,46.574 130.200 C 46.429 130.970,46.151 131.600,45.955 131.600 C 45.760 131.600,45.600 132.050,45.600 132.600 C 45.600 133.150,45.420 133.600,45.200 133.600 C 44.980 133.600,44.800 133.960,44.800 134.400 C 44.800 134.840,44.640 135.200,44.443 135.200 C 44.138 135.200,43.641 136.396,43.364 137.800 C 43.128 138.990,42.664 140.000,42.353 140.000 C 42.159 140.000,42.000 140.450,42.000 141.000 C 42.000 141.550,41.820 142.000,41.600 142.000 C 41.380 142.000,41.200 142.439,41.200 142.976 C 41.200 143.513,41.030 144.058,40.823 144.186 C 40.616 144.314,40.325 145.224,40.178 146.209 C 40.030 147.194,39.750 148.000,39.555 148.000 C 39.360 148.000,39.200 148.450,39.200 149.000 C 39.200 149.550,39.020 150.000,38.800 150.000 C 38.580 150.000,38.400 150.450,38.400 151.000 C 38.400 151.550,38.233 152.000,38.029 152.000 C 37.825 152.000,37.534 152.990,37.383 154.200 C 37.232 155.410,36.969 156.400,36.799 156.400 C 36.630 156.400,36.380 156.940,36.245 157.600 C 36.110 158.260,35.890 159.340,35.755 160.000 C 35.620 160.660,35.371 161.200,35.201 161.200 C 35.032 161.200,34.768 162.370,34.615 163.800 C 34.462 165.230,34.171 166.400,33.968 166.400 C 33.766 166.400,33.600 167.019,33.600 167.776 C 33.600 168.533,33.420 169.264,33.200 169.400 C 32.980 169.536,32.800 170.267,32.800 171.024 C 32.800 171.781,32.645 172.400,32.456 172.400 C 32.154 172.400,31.630 175.289,31.459 177.900 C 31.427 178.395,31.265 178.800,31.100 178.800 C 30.935 178.800,30.800 179.689,30.800 180.776 C 30.800 181.863,30.620 182.864,30.400 183.000 C 30.180 183.136,30.000 184.122,30.000 185.190 C 30.000 186.259,29.834 187.193,29.631 187.267 C 29.427 187.340,29.216 188.480,29.162 189.800 C 29.107 191.120,28.924 192.294,28.755 192.409 C 28.587 192.523,28.321 195.364,28.164 198.722 C 28.008 202.080,27.727 204.921,27.540 205.037 C 27.097 205.311,27.095 241.488,27.538 241.762 C 27.724 241.876,27.999 244.698,28.149 248.033 C 28.300 251.367,28.598 254.422,28.811 254.821 C 29.025 255.221,29.200 256.449,29.200 257.550 C 29.200 258.652,29.380 259.664,29.600 259.800 C 29.820 259.936,30.000 260.926,30.000 262.000 C 30.000 263.074,30.180 264.064,30.400 264.200 C 30.620 264.336,30.799 265.022,30.798 265.724 C 30.796 267.322,31.967 273.563,32.444 274.495 C 32.640 274.877,32.800 275.721,32.800 276.371 C 32.800 277.021,32.980 277.664,33.200 277.800 C 33.420 277.936,33.600 278.566,33.600 279.200 C 33.600 279.834,33.755 280.448,33.944 280.565 C 34.133 280.682,34.405 281.630,34.548 282.670 C 34.817 284.633,35.442 286.894,36.049 288.095 C 36.242 288.477,36.400 289.242,36.400 289.795 C 36.400 290.348,36.563 290.800,36.762 290.800 C 36.962 290.800,37.249 291.700,37.400 292.800 C 37.551 293.899,37.838 294.900,38.037 295.023 C 38.237 295.146,38.400 295.687,38.400 296.224 C 38.400 296.761,38.580 297.200,38.800 297.200 C 39.020 297.200,39.200 297.650,39.200 298.200 C 39.200 298.750,39.360 299.200,39.555 299.200 C 39.750 299.200,40.030 300.006,40.178 300.991 C 40.325 301.976,40.616 302.886,40.823 303.014 C 41.030 303.142,41.200 303.597,41.200 304.024 C 41.200 304.451,41.380 304.800,41.600 304.800 C 41.820 304.800,42.000 305.072,42.000 305.405 C 42.000 305.738,42.167 306.323,42.371 306.705 C 42.789 307.488,43.270 308.760,43.422 309.483 C 43.478 309.748,43.811 310.541,44.162 311.244 C 44.513 311.947,44.800 312.765,44.800 313.061 C 44.800 313.358,44.980 313.600,45.200 313.600 C 45.420 313.600,45.600 314.050,45.600 314.600 C 45.600 315.150,45.772 315.600,45.982 315.600 C 46.192 315.600,46.482 316.230,46.626 317.000 C 46.771 317.770,47.015 318.400,47.170 318.400 C 47.324 318.400,47.698 319.030,48.000 319.800 C 48.302 320.570,48.676 321.200,48.830 321.200 C 48.985 321.200,49.229 321.830,49.374 322.600 C 49.518 323.370,49.808 324.000,50.018 324.000 C 50.228 324.000,50.400 324.360,50.400 324.800 C 50.400 325.240,50.580 325.600,50.800 325.600 C 51.020 325.600,51.200 325.870,51.200 326.200 C 51.200 326.530,51.360 326.800,51.555 326.800 C 51.751 326.800,52.029 327.430,52.174 328.200 C 52.318 328.970,52.574 329.600,52.743 329.600 C 52.912 329.600,53.298 330.230,53.600 331.000 C 53.902 331.770,54.278 332.400,54.436 332.400 C 54.593 332.400,54.911 332.895,55.142 333.500 C 55.702 334.968,56.852 336.858,57.636 337.599 C 57.986 337.930,58.384 338.654,58.521 339.208 C 58.657 339.762,59.091 340.582,59.485 341.030 C 60.346 342.010,60.960 342.968,61.835 344.700 C 62.196 345.415,62.651 346.000,62.846 346.000 C 63.041 346.000,63.200 346.270,63.200 346.600 C 63.200 346.930,63.341 347.200,63.514 347.200 C 63.686 347.200,64.168 347.785,64.584 348.500 C 64.999 349.215,65.463 349.890,65.614 350.000 C 65.765 350.110,66.188 350.785,66.554 351.500 C 66.921 352.215,67.396 352.800,67.610 352.800 C 67.825 352.800,68.000 353.032,68.000 353.317 C 68.000 353.601,68.585 354.497,69.300 355.308 C 72.076 358.457,72.987 359.613,73.247 360.315 C 73.395 360.715,74.073 361.484,74.754 362.022 C 75.436 362.560,75.994 363.195,75.996 363.434 C 75.998 363.672,77.125 365.052,78.500 366.499 C 81.039 369.173,81.502 369.701,83.101 371.754 C 83.595 372.389,84.000 372.757,84.000 372.573 C 84.000 372.388,84.315 372.647,84.700 373.148 C 85.810 374.592,89.736 378.502,91.388 379.807 C 92.217 380.463,93.858 381.900,95.033 383.000 C 97.698 385.495,98.301 386.000,98.616 386.000 C 98.754 386.000,99.479 386.630,100.226 387.400 C 100.974 388.170,101.754 388.800,101.959 388.800 C 102.164 388.800,103.022 389.434,103.866 390.209 C 106.672 392.785,107.169 393.200,107.448 393.200 C 107.600 393.200,108.314 393.650,109.036 394.200 C 109.757 394.750,110.473 395.200,110.626 395.200 C 110.780 395.200,111.197 395.534,111.553 395.943 C 111.909 396.351,112.605 396.813,113.100 396.970 C 113.595 397.126,114.000 397.422,114.000 397.627 C 114.000 397.832,114.270 398.000,114.600 398.000 C 114.930 398.000,115.200 398.151,115.200 398.335 C 115.200 398.519,116.190 399.170,117.400 399.782 C 118.610 400.394,119.600 401.054,119.600 401.248 C 119.600 401.441,119.960 401.600,120.400 401.600 C 120.840 401.600,121.200 401.780,121.200 402.000 C 121.200 402.220,121.470 402.400,121.800 402.400 C 122.130 402.400,122.400 402.577,122.400 402.792 C 122.400 403.008,122.850 403.298,123.400 403.436 C 123.950 403.574,124.400 403.847,124.400 404.043 C 124.400 404.240,124.760 404.400,125.200 404.400 C 125.640 404.400,126.000 404.538,126.000 404.706 C 126.000 405.018,128.911 406.400,129.569 406.400 C 129.770 406.400,129.993 406.546,130.067 406.724 C 130.268 407.212,134.452 409.200,135.279 409.200 C 135.675 409.200,136.000 409.380,136.000 409.600 C 136.000 409.820,136.270 410.000,136.600 410.000 C 136.930 410.000,137.200 410.180,137.200 410.400 C 137.200 410.620,137.560 410.800,138.000 410.800 C 138.440 410.800,138.800 410.960,138.800 411.155 C 138.800 411.350,139.610 411.631,140.600 411.779 C 141.590 411.928,142.400 412.218,142.400 412.425 C 142.400 412.631,142.589 412.800,142.819 412.800 C 143.050 412.800,143.984 413.160,144.894 413.600 C 145.805 414.040,146.866 414.400,147.252 414.400 C 147.637 414.400,148.054 414.564,148.178 414.765 C 148.303 414.966,149.122 415.252,150.000 415.400 C 150.878 415.548,151.697 415.834,151.822 416.035 C 151.946 416.236,152.487 416.400,153.024 416.400 C 153.561 416.400,154.000 416.580,154.000 416.800 C 154.000 417.020,154.540 417.200,155.200 417.200 C 155.860 417.200,156.400 417.371,156.400 417.580 C 156.400 417.789,157.480 418.082,158.800 418.232 C 160.120 418.381,161.200 418.660,161.200 418.852 C 161.200 419.043,161.830 419.200,162.600 419.200 C 163.370 419.200,164.000 419.380,164.000 419.600 C 164.000 419.820,164.684 420.000,165.520 420.000 C 166.356 420.000,167.216 420.176,167.431 420.391 C 167.646 420.606,169.392 420.902,171.311 421.050 C 173.230 421.197,174.800 421.471,174.800 421.659 C 174.800 421.847,175.689 422.000,176.776 422.000 C 177.863 422.000,178.864 422.180,179.000 422.400 C 179.136 422.620,180.677 422.800,182.424 422.800 C 184.275 422.800,185.600 422.967,185.600 423.200 C 185.600 423.459,190.667 423.600,200.000 423.600 C 209.333 423.600,214.400 423.459,214.400 423.200 C 214.400 422.967,215.725 422.800,217.576 422.800 C 219.323 422.800,220.864 422.620,221.000 422.400 C 221.136 422.180,222.137 422.000,223.224 422.000 C 224.311 422.000,225.200 421.847,225.200 421.659 C 225.200 421.471,226.770 421.197,228.689 421.050 C 230.608 420.902,232.354 420.606,232.569 420.391 C 232.784 420.176,233.644 420.000,234.480 420.000 C 235.316 420.000,236.000 419.820,236.000 419.600 C 236.000 419.380,236.630 419.200,237.400 419.200 C 238.170 419.200,238.800 419.043,238.800 418.852 C 238.800 418.660,239.880 418.381,241.200 418.232 C 242.520 418.082,243.600 417.789,243.600 417.580 C 243.600 417.371,244.140 417.200,244.800 417.200 C 245.460 417.200,246.000 417.020,246.000 416.800 C 246.000 416.580,246.439 416.400,246.976 416.400 C 247.513 416.400,248.054 416.236,248.178 416.035 C 248.303 415.834,249.122 415.548,250.000 415.400 C 250.878 415.252,251.697 414.966,251.822 414.765 C 251.946 414.564,252.363 414.400,252.748 414.400 C 253.134 414.400,254.195 414.040,255.106 413.600 C 256.016 413.160,257.040 412.800,257.381 412.800 C 257.721 412.800,258.000 412.622,258.000 412.405 C 258.000 412.187,258.720 411.894,259.600 411.754 C 260.480 411.613,261.200 411.341,261.200 411.149 C 261.200 410.957,261.560 410.800,262.000 410.800 C 262.440 410.800,262.800 410.620,262.800 410.400 C 262.800 410.180,263.070 410.000,263.400 410.000 C 263.730 410.000,264.000 409.820,264.000 409.600 C 264.000 409.380,264.325 409.200,264.721 409.200 C 265.548 409.200,269.732 407.212,269.933 406.724 C 270.007 406.546,270.230 406.400,270.431 406.400 C 271.089 406.400,274.000 405.018,274.000 404.706 C 274.000 404.538,274.360 404.400,274.800 404.400 C 275.240 404.400,275.600 404.220,275.600 404.000 C 275.600 403.780,275.857 403.600,276.171 403.600 C 276.486 403.600,276.981 403.375,277.271 403.100 C 277.562 402.825,278.340 402.330,279.000 402.000 C 279.660 401.670,280.448 401.165,280.750 400.879 C 281.053 400.592,282.088 399.987,283.050 399.534 C 284.013 399.082,284.800 398.552,284.800 398.356 C 284.800 398.160,285.070 398.000,285.400 398.000 C 285.730 398.000,286.000 397.832,286.000 397.627 C 286.000 397.422,286.405 397.126,286.900 396.970 C 287.395 396.813,288.091 396.351,288.447 395.943 C 288.803 395.534,289.220 395.200,289.374 395.200 C 289.527 395.200,290.243 394.750,290.964 394.200 C 291.686 393.650,292.400 393.200,292.552 393.200 C 292.832 393.200,293.723 392.458,296.274 390.100 C 297.047 389.385,297.845 388.800,298.047 388.800 C 298.249 388.800,299.026 388.170,299.774 387.400 C 300.521 386.630,301.246 386.000,301.384 386.000 C 301.699 386.000,302.302 385.495,304.967 383.000 C 306.142 381.900,307.783 380.463,308.612 379.807 C 309.856 378.825,312.605 376.149,315.081 373.512 C 315.345 373.230,315.795 372.808,316.081 372.574 C 316.366 372.340,317.140 371.465,317.800 370.629 C 318.460 369.793,320.125 367.930,321.500 366.488 C 322.875 365.047,324.000 363.705,324.000 363.507 C 324.000 363.308,324.603 362.573,325.339 361.873 C 326.075 361.173,326.750 360.377,326.839 360.104 C 326.996 359.622,328.036 358.330,330.700 355.308 C 331.415 354.497,332.000 353.601,332.000 353.317 C 332.000 353.032,332.175 352.800,332.390 352.800 C 332.604 352.800,333.073 352.232,333.432 351.538 C 333.791 350.843,334.424 349.912,334.838 349.467 C 335.252 349.023,335.695 348.331,335.822 347.929 C 335.950 347.528,336.222 347.200,336.427 347.200 C 336.632 347.200,336.800 346.930,336.800 346.600 C 336.800 346.270,336.967 346.000,337.171 346.000 C 337.375 346.000,337.860 345.280,338.248 344.400 C 338.636 343.520,339.099 342.800,339.277 342.800 C 339.455 342.800,339.600 342.612,339.600 342.383 C 339.600 342.154,339.967 341.573,340.415 341.091 C 340.864 340.610,341.343 339.762,341.479 339.208 C 341.616 338.654,342.014 337.930,342.364 337.599 C 343.148 336.858,344.298 334.968,344.858 333.500 C 345.089 332.895,345.407 332.400,345.564 332.400 C 345.722 332.400,346.098 331.770,346.400 331.000 C 346.702 330.230,347.088 329.600,347.257 329.600 C 347.426 329.600,347.682 328.970,347.826 328.200 C 347.971 327.430,348.249 326.800,348.445 326.800 C 348.640 326.800,348.800 326.530,348.800 326.200 C 348.800 325.870,348.980 325.600,349.200 325.600 C 349.420 325.600,349.600 325.240,349.600 324.800 C 349.600 324.360,349.772 324.000,349.982 324.000 C 350.192 324.000,350.482 323.370,350.626 322.600 C 350.771 321.830,351.015 321.200,351.170 321.200 C 351.324 321.200,351.698 320.570,352.000 319.800 C 352.302 319.030,352.676 318.400,352.830 318.400 C 352.985 318.400,353.229 317.770,353.374 317.000 C 353.518 316.230,353.808 315.600,354.018 315.600 C 354.228 315.600,354.400 315.150,354.400 314.600 C 354.400 314.050,354.580 313.600,354.800 313.600 C 355.020 313.600,355.200 313.364,355.200 313.075 C 355.200 312.786,355.548 311.829,355.974 310.948 C 356.400 310.067,356.870 308.862,357.018 308.269 C 357.167 307.677,357.449 307.094,357.644 306.973 C 357.840 306.852,358.000 306.313,358.000 305.776 C 358.000 305.239,358.180 304.800,358.400 304.800 C 358.620 304.800,358.800 304.551,358.800 304.246 C 358.800 303.941,359.069 303.176,359.398 302.546 C 359.726 301.916,359.996 300.905,359.998 300.300 C 359.999 299.695,360.180 299.200,360.400 299.200 C 360.620 299.200,360.800 298.750,360.800 298.200 C 360.800 297.650,360.980 297.200,361.200 297.200 C 361.420 297.200,361.600 296.761,361.600 296.224 C 361.600 295.687,361.763 295.146,361.963 295.023 C 362.162 294.900,362.449 293.899,362.600 292.800 C 362.751 291.700,363.038 290.800,363.238 290.800 C 363.437 290.800,363.600 290.271,363.600 289.624 C 363.600 288.977,363.780 288.336,364.000 288.200 C 364.220 288.064,364.400 287.524,364.400 287.000 C 364.400 286.476,364.559 285.949,364.753 285.829 C 364.948 285.709,365.235 284.573,365.392 283.305 C 365.549 282.037,365.817 280.820,365.988 280.600 C 366.159 280.380,366.401 279.660,366.526 279.000 C 366.984 276.567,367.268 275.381,367.580 274.600 C 368.068 273.376,369.204 267.162,369.202 265.724 C 369.201 265.022,369.380 264.336,369.600 264.200 C 369.820 264.064,370.000 263.074,370.000 262.000 C 370.000 260.926,370.180 259.936,370.400 259.800 C 370.620 259.664,370.800 258.652,370.800 257.550 C 370.800 256.449,370.975 255.221,371.189 254.821 C 371.402 254.422,371.700 251.367,371.851 248.033 C 372.001 244.698,372.276 241.876,372.462 241.762 C 372.905 241.488,372.903 205.311,372.460 205.037 C 372.273 204.921,371.992 202.089,371.837 198.744 C 371.681 195.398,371.384 192.344,371.177 191.956 C 370.970 191.569,370.800 190.341,370.800 189.226 C 370.800 188.112,370.620 187.200,370.400 187.200 C 370.180 187.200,370.000 186.311,370.000 185.224 C 370.000 184.137,369.820 183.136,369.600 183.000 C 369.380 182.864,369.200 181.863,369.200 180.776 C 369.200 179.689,369.065 178.800,368.900 178.800 C 368.735 178.800,368.573 178.395,368.541 177.900 C 368.370 175.289,367.846 172.400,367.544 172.400 C 367.355 172.400,367.200 171.781,367.200 171.024 C 367.200 170.267,367.020 169.536,366.800 169.400 C 366.580 169.264,366.400 168.533,366.400 167.776 C 366.400 167.019,366.234 166.400,366.032 166.400 C 365.829 166.400,365.538 165.230,365.385 163.800 C 365.232 162.370,364.968 161.200,364.799 161.200 C 364.629 161.200,364.374 160.615,364.231 159.900 C 363.610 156.800,363.493 156.400,363.201 156.400 C 363.031 156.400,362.768 155.410,362.617 154.200 C 362.466 152.990,362.175 152.000,361.971 152.000 C 361.767 152.000,361.600 151.550,361.600 151.000 C 361.600 150.450,361.420 150.000,361.200 150.000 C 360.980 150.000,360.800 149.561,360.800 149.024 C 360.800 148.487,360.620 147.936,360.400 147.800 C 360.180 147.664,359.999 147.158,359.998 146.676 C 359.996 146.194,359.726 145.284,359.398 144.654 C 359.069 144.024,358.800 143.169,358.800 142.754 C 358.800 142.339,358.620 142.000,358.400 142.000 C 358.180 142.000,358.000 141.550,358.000 141.000 C 358.000 140.450,357.865 139.998,357.700 139.997 C 357.535 139.995,357.064 138.915,356.653 137.597 C 356.242 136.278,355.747 135.200,355.553 135.200 C 355.359 135.200,355.200 134.840,355.200 134.400 C 355.200 133.960,355.020 133.600,354.800 133.600 C 354.580 133.600,354.400 133.150,354.400 132.600 C 354.400 132.050,354.240 131.600,354.045 131.600 C 353.849 131.600,353.571 130.970,353.426 130.200 C 353.282 129.430,352.992 128.800,352.782 128.800 C 352.572 128.800,352.400 128.440,352.400 128.000 C 352.400 127.560,352.220 127.200,352.000 127.200 C 351.780 127.200,351.600 126.930,351.600 126.600 C 351.600 126.270,351.440 126.000,351.245 126.000 C 351.049 126.000,350.771 125.370,350.626 124.600 C 350.482 123.830,350.192 123.200,349.982 123.200 C 349.772 123.200,349.600 122.840,349.600 122.400 C 349.600 121.960,349.420 121.600,349.200 121.600 C 348.980 121.600,348.800 121.330,348.800 121.000 C 348.800 120.670,348.640 120.400,348.445 120.400 C 348.249 120.400,347.971 119.770,347.826 119.000 C 347.682 118.230,347.392 117.600,347.182 117.600 C 346.972 117.600,346.800 117.240,346.800 116.800 C 346.800 116.360,346.620 116.000,346.400 116.000 C 346.180 116.000,346.000 115.730,346.000 115.400 C 346.000 115.070,345.847 114.800,345.660 114.800 C 345.473 114.800,344.987 113.990,344.578 113.000 C 344.170 112.010,343.715 111.200,343.567 111.200 C 343.418 111.200,343.073 110.660,342.800 110.000 C 342.527 109.340,342.164 108.800,341.995 108.800 C 341.825 108.800,341.584 108.391,341.459 107.892 C 341.334 107.393,340.864 106.590,340.415 106.109 C 339.967 105.627,339.600 104.956,339.600 104.617 C 339.600 104.278,339.432 104.000,339.227 104.000 C 339.022 104.000,338.726 103.595,338.570 103.100 C 338.413 102.605,337.951 101.909,337.543 101.553 C 337.134 101.197,336.800 100.702,336.800 100.453 C 336.800 100.204,336.653 100.000,336.474 100.000 C 336.295 100.000,335.846 99.415,335.477 98.700 C 334.704 97.204,333.899 95.889,333.579 95.600 C 333.457 95.490,332.829 94.680,332.183 93.800 C 331.537 92.920,330.692 91.909,330.304 91.553 C 329.917 91.197,329.600 90.702,329.600 90.452 C 329.600 90.203,328.991 89.414,328.246 88.699 C 327.502 87.985,326.783 87.040,326.649 86.600 C 326.514 86.160,325.864 85.440,325.203 85.000 C 324.543 84.560,324.002 83.985,324.001 83.723 C 324.001 83.461,322.840 82.045,321.422 80.577 C 320.004 79.109,318.519 77.453,318.122 76.897 C 317.136 75.514,307.481 66.000,307.065 66.000 C 306.974 66.000,305.790 64.920,304.432 63.600 C 303.075 62.280,301.792 61.200,301.582 61.200 C 301.371 61.200,300.490 60.525,299.623 59.700 C 297.833 57.996,297.216 57.479,294.987 55.817 C 294.114 55.166,293.340 54.491,293.267 54.317 C 293.193 54.142,292.923 54.000,292.667 54.000 C 292.410 53.999,291.677 53.549,291.038 53.000 C 290.399 52.450,289.673 52.000,289.426 52.000 C 289.179 52.000,288.717 51.640,288.400 51.200 C 288.083 50.760,287.593 50.400,287.312 50.400 C 287.030 50.400,286.800 50.232,286.800 50.027 C 286.800 49.822,286.409 49.530,285.931 49.378 C 285.453 49.226,284.699 48.764,284.255 48.351 C 283.812 47.938,283.213 47.600,282.925 47.600 C 282.636 47.600,282.400 47.458,282.400 47.284 C 282.400 47.111,281.365 46.437,280.100 45.787 C 278.835 45.136,277.710 44.509,277.600 44.393 C 277.049 43.811,275.155 42.800,274.614 42.800 C 274.276 42.800,274.000 42.620,274.000 42.400 C 274.000 42.180,273.730 42.000,273.400 42.000 C 273.070 42.000,272.800 41.820,272.800 41.600 C 272.800 41.380,272.440 41.200,272.000 41.200 C 271.560 41.200,271.200 41.034,271.200 40.832 C 271.200 40.629,270.660 40.345,270.000 40.200 C 269.340 40.055,268.799 39.816,268.797 39.668 C 268.793 39.334,266.823 38.400,266.120 38.400 C 265.834 38.400,265.600 38.240,265.600 38.045 C 265.600 37.849,264.970 37.571,264.200 37.426 C 263.430 37.282,262.800 36.992,262.800 36.782 C 262.800 36.572,262.440 36.400,262.000 36.400 C 261.560 36.400,261.200 36.220,261.200 36.000 C 261.200 35.780,260.951 35.600,260.646 35.600 C 260.341 35.600,259.576 35.331,258.946 35.002 C 258.316 34.674,257.496 34.404,257.124 34.402 C 256.752 34.401,256.336 34.220,256.200 34.000 C 256.064 33.780,255.503 33.600,254.953 33.600 C 254.388 33.600,254.060 33.426,254.200 33.200 C 254.344 32.967,253.937 32.800,253.224 32.800 C 252.551 32.800,252.000 32.620,252.000 32.400 C 252.000 32.180,251.661 32.000,251.246 32.000 C 250.831 32.000,249.976 31.731,249.346 31.402 C 248.716 31.074,247.705 30.804,247.100 30.802 C 246.495 30.801,246.000 30.620,246.000 30.400 C 246.000 30.180,245.475 30.000,244.833 30.000 C 244.192 30.000,243.607 29.865,243.533 29.700 C 243.360 29.310,238.370 28.000,237.058 28.000 C 236.502 28.000,235.936 27.820,235.800 27.600 C 235.664 27.380,234.944 27.200,234.200 27.200 C 233.456 27.200,232.736 27.020,232.600 26.800 C 232.464 26.580,231.731 26.400,230.971 26.400 C 230.211 26.400,229.277 26.227,228.895 26.015 C 228.170 25.613,222.674 24.889,217.700 24.540 C 216.105 24.428,214.800 24.179,214.800 23.987 C 214.800 23.794,208.155 23.625,199.971 23.610 C 190.749 23.593,185.230 23.725,185.376 23.961 M271.925 67.310 C 272.185 67.623,272.473 72.570,272.674 80.181 L 273.000 92.544 277.600 92.447 C 293.639 92.110,302.988 97.291,313.865 112.545 C 325.088 128.282,326.748 142.950,319.805 165.000 C 318.765 168.300,317.778 171.450,317.610 172.000 C 317.442 172.550,316.838 174.102,316.268 175.449 C 311.487 186.754,311.614 191.504,317.017 203.638 C 319.425 209.045,321.929 212.891,327.396 219.575 C 333.832 227.444,333.382 229.882,324.321 236.231 C 317.260 241.179,316.517 243.111,319.068 249.897 C 319.973 252.304,319.585 254.443,317.835 256.690 C 316.269 258.699,316.020 260.285,317.000 262.000 C 318.211 264.119,317.716 265.872,315.096 268.742 C 313.328 270.679,313.371 270.129,314.451 277.096 C 316.522 290.459,305.618 297.592,289.800 293.223 C 289.140 293.041,287.520 292.667,286.200 292.393 C 282.966 291.720,279.983 290.911,276.492 289.759 C 269.184 287.349,266.511 289.439,263.016 300.293 C 254.315 327.320,251.784 362.321,257.715 373.617 C 261.045 379.960,261.402 380.516,263.959 383.357 C 269.065 389.031,269.863 390.973,267.897 392.939 C 266.551 394.286,254.658 399.199,246.400 401.820 C 244.530 402.413,240.840 403.604,238.200 404.465 C 220.889 410.110,201.177 410.765,178.800 406.437 C 172.329 405.186,157.271 401.927,154.600 401.200 C 152.840 400.720,150.860 400.184,150.200 400.007 C 145.782 398.823,135.406 394.414,129.393 391.165 C 127.189 389.974,124.879 388.736,124.259 388.414 C 120.812 386.623,121.207 384.029,125.482 380.376 C 127.397 378.739,130.326 376.140,131.990 374.600 C 133.655 373.060,136.803 370.180,138.986 368.200 C 146.704 361.201,147.824 360.174,150.549 357.600 C 155.127 353.275,168.196 337.695,170.177 334.200 C 170.801 333.100,171.540 331.930,171.820 331.600 C 173.573 329.534,179.856 315.738,181.839 309.600 C 183.918 303.165,184.625 299.462,186.194 286.800 C 186.535 284.050,186.985 280.450,187.194 278.800 C 187.403 277.150,187.688 274.723,187.828 273.407 C 187.967 272.091,188.462 270.021,188.928 268.807 C 190.172 265.565,190.137 253.301,188.871 248.732 C 186.683 240.842,182.984 235.573,173.650 227.049 C 163.881 218.128,157.363 215.144,147.422 215.041 L 143.400 215.000 143.533 218.800 C 143.886 228.883,140.962 234.037,130.800 241.244 C 121.243 248.022,110.912 250.874,101.800 249.250 C 89.770 247.105,74.989 245.773,71.434 246.514 C 66.370 247.570,65.787 246.590,68.771 242.044 C 69.942 240.261,71.582 236.903,72.618 234.168 C 76.808 223.107,83.380 212.254,88.633 207.718 C 104.063 194.397,122.342 194.299,136.000 207.462 L 139.800 211.125 144.032 210.908 C 157.088 210.241,166.302 214.396,178.650 226.518 C 183.779 231.554,183.687 231.573,183.195 225.564 C 182.653 218.954,181.602 215.919,178.223 211.200 C 176.880 209.325,174.481 205.123,172.948 201.960 L 172.056 200.120 169.528 199.860 C 167.271 199.629,162.805 198.566,157.600 197.021 C 154.619 196.136,144.069 191.665,139.800 189.477 C 113.614 176.056,103.344 149.783,106.816 105.099 C 107.524 95.992,107.243 89.511,106.034 87.044 C 104.346 83.602,105.945 82.662,109.243 85.159 C 113.193 88.148,119.252 91.012,132.600 96.197 C 135.240 97.222,138.300 98.430,139.400 98.881 C 152.410 104.211,167.248 116.272,169.614 123.442 C 170.493 126.106,170.744 125.716,174.663 115.600 C 177.723 107.698,185.654 96.800,188.344 96.800 C 191.095 96.800,195.857 110.241,196.775 120.600 C 197.544 129.278,198.027 140.941,197.756 144.300 C 197.432 148.320,197.372 148.315,200.221 144.500 C 202.278 141.746,202.552 141.155,202.679 139.200 C 203.069 133.186,203.680 126.439,203.981 124.815 C 204.167 123.817,204.536 121.740,204.802 120.200 C 208.114 101.034,216.864 91.974,238.634 85.167 C 240.815 84.485,243.410 83.662,244.400 83.338 C 251.458 81.028,265.685 72.671,268.517 69.172 C 270.461 66.770,271.160 66.388,271.925 67.310 M265.649 120.914 C 257.467 135.962,247.115 144.066,230.800 148.196 C 216.673 151.771,208.320 151.384,204.867 146.994 C 203.967 145.851,203.939 145.873,201.273 149.857 C 200.368 151.209,199.397 152.562,199.114 152.865 C 196.784 155.357,192.729 167.785,189.215 183.200 C 186.163 196.592,184.831 212.315,186.217 218.600 C 186.557 220.140,186.986 224.298,187.172 227.841 C 187.357 231.383,187.709 234.656,187.954 235.114 C 188.199 235.572,188.400 236.325,188.400 236.787 C 188.400 237.766,190.261 241.600,190.736 241.600 C 190.914 241.600,191.571 240.475,192.196 239.100 C 193.949 235.240,194.958 233.207,196.391 230.639 C 197.690 228.311,197.704 228.231,197.378 225.039 C 196.206 213.574,198.784 198.640,203.831 187.664 C 208.983 176.460,220.674 168.196,242.385 160.410 C 247.014 158.750,246.986 158.777,247.628 155.438 C 248.068 153.150,248.221 152.940,252.579 148.638 C 261.563 139.770,267.803 127.409,267.125 119.823 L 267.000 118.429 265.649 120.914 M182.247 190.193 C 181.392 191.656,179.550 194.099,178.153 195.622 C 175.732 198.259,175.635 198.442,176.099 199.495 C 177.048 201.654,179.348 205.826,180.565 207.600 L 181.800 209.400 182.075 205.000 C 182.375 200.216,183.009 194.693,183.665 191.158 C 184.345 187.496,183.970 187.241,182.247 190.193 M198.660 235.256 C 198.025 236.230,194.533 243.507,193.494 246.021 C 193.010 247.191,192.986 247.927,193.356 250.181 L 193.805 252.918 194.867 250.559 C 195.450 249.262,196.293 247.348,196.739 246.307 C 197.556 244.398,198.687 242.714,201.091 239.828 C 202.742 237.846,202.732 237.686,200.838 235.837 L 199.276 234.312 198.660 235.256 " stroke="none" fill="#c3f3eb" fill-rule="evenodd"></path><path id="path3" d="M272.093 70.400 C 272.093 71.170,272.175 71.485,272.276 71.100 C 272.376 70.715,272.376 70.085,272.276 69.700 C 272.175 69.315,272.093 69.630,272.093 70.400 M272.509 79.200 C 272.509 80.190,272.587 80.595,272.682 80.100 C 272.778 79.605,272.778 78.795,272.682 78.300 C 272.587 77.805,272.509 78.210,272.509 79.200 M107.331 95.000 C 107.333 96.540,107.405 97.121,107.492 96.291 C 107.579 95.461,107.577 94.201,107.489 93.491 C 107.400 92.781,107.329 93.460,107.331 95.000 M272.800 92.889 C 272.800 93.093,273.983 93.132,275.538 92.979 C 284.153 92.130,295.670 94.903,300.600 99.014 C 321.508 116.447,327.861 137.306,319.977 162.635 C 318.435 167.590,317.782 169.502,313.974 180.200 C 309.989 191.395,313.524 203.112,325.375 217.992 C 333.309 227.954,333.225 229.015,323.984 235.598 C 317.250 240.395,316.066 242.463,317.405 247.085 C 317.774 248.358,318.259 249.623,318.484 249.897 C 319.485 251.113,318.955 254.339,317.433 256.292 C 315.471 258.810,315.312 259.678,316.391 261.982 C 317.519 264.388,317.258 265.804,315.347 267.639 C 312.948 269.945,312.659 270.830,313.381 273.649 C 314.961 279.817,313.829 286.373,310.558 289.994 C 306.158 294.864,294.224 294.757,278.000 289.702 C 267.879 286.548,265.175 289.055,260.981 305.477 C 260.206 308.515,259.296 311.990,258.960 313.200 C 257.570 318.203,257.165 320.142,256.034 327.200 C 254.173 338.806,253.999 340.809,254.001 350.600 C 254.002 360.234,254.894 369.123,256.096 371.494 C 260.336 379.855,262.621 383.393,266.238 387.200 C 269.619 390.759,268.966 392.130,262.518 395.010 C 255.600 398.099,235.866 404.970,229.636 406.457 C 216.760 409.532,196.429 409.441,180.800 406.240 C 151.846 400.308,143.266 397.798,132.400 392.077 C 122.404 386.815,120.779 384.864,124.281 382.327 C 126.341 380.834,133.141 374.788,138.705 369.501 C 141.542 366.806,146.226 362.389,149.114 359.688 C 153.499 355.585,162.193 345.847,168.475 338.000 C 172.025 333.566,179.100 319.372,181.934 311.000 C 184.488 303.456,185.163 299.947,186.972 284.800 C 187.774 278.090,188.805 271.250,189.264 269.600 C 190.202 266.226,190.707 256.349,190.102 253.200 C 189.858 251.928,189.759 253.630,189.766 259.000 C 189.774 265.793,189.685 266.834,188.928 268.807 C 188.462 270.021,187.967 272.091,187.828 273.407 C 187.688 274.723,187.403 277.150,187.194 278.800 C 186.985 280.450,186.535 284.050,186.194 286.800 C 184.625 299.462,183.918 303.165,181.839 309.600 C 179.856 315.738,173.573 329.534,171.820 331.600 C 171.540 331.930,170.801 333.100,170.177 334.200 C 168.196 337.695,155.127 353.275,150.549 357.600 C 147.824 360.174,146.704 361.201,138.986 368.200 C 136.803 370.180,133.655 373.060,131.990 374.600 C 130.326 376.140,127.397 378.739,125.482 380.376 C 121.207 384.029,120.812 386.623,124.259 388.414 C 124.879 388.736,127.189 389.974,129.393 391.165 C 135.406 394.414,145.782 398.823,150.200 400.007 C 150.860 400.184,152.840 400.720,154.600 401.200 C 157.271 401.927,172.329 405.186,178.800 406.437 C 201.177 410.765,220.889 410.110,238.200 404.465 C 240.840 403.604,244.530 402.413,246.400 401.820 C 254.658 399.199,266.551 394.286,267.897 392.939 C 269.863 390.973,269.065 389.031,263.959 383.357 C 261.402 380.516,261.045 379.960,257.715 373.617 C 253.811 366.182,253.419 344.916,256.836 326.000 C 258.075 319.140,258.581 316.826,260.378 309.800 C 265.455 289.956,267.894 286.924,276.492 289.759 C 279.983 290.911,282.966 291.720,286.200 292.393 C 287.520 292.667,289.140 293.041,289.800 293.223 C 305.618 297.592,316.522 290.459,314.451 277.096 C 313.371 270.129,313.328 270.679,315.096 268.742 C 317.716 265.872,318.211 264.119,317.000 262.000 C 316.020 260.285,316.269 258.699,317.835 256.690 C 319.585 254.443,319.973 252.304,319.068 249.897 C 316.517 243.111,317.260 241.179,324.321 236.231 C 333.382 229.882,333.832 227.444,327.396 219.575 C 321.929 212.891,319.425 209.045,317.017 203.638 C 311.614 191.504,311.487 186.754,316.268 175.449 C 316.838 174.102,317.442 172.550,317.610 172.000 C 317.778 171.450,318.765 168.300,319.805 165.000 C 325.031 148.405,325.363 138.710,321.136 126.200 C 316.606 112.792,302.733 97.287,292.489 94.183 C 287.563 92.690,272.800 91.720,272.800 92.889 M214.788 97.900 L 212.200 100.600 214.900 98.012 C 217.408 95.607,217.783 95.200,217.488 95.200 C 217.427 95.200,216.212 96.415,214.788 97.900 M185.829 98.500 C 180.790 103.568,177.184 109.090,174.663 115.600 C 171.614 123.470,171.020 124.776,170.439 124.890 C 169.968 124.982,169.975 125.082,170.480 125.501 C 170.997 125.930,171.231 125.615,172.116 123.301 C 177.221 109.940,179.173 106.448,185.190 99.900 C 187.625 97.250,188.696 96.705,189.512 97.700 C 190.546 98.961,194.189 108.668,195.189 112.826 C 196.429 117.979,197.782 140.121,197.146 144.843 C 196.472 149.853,196.676 149.879,200.114 145.219 L 203.200 141.039 203.134 137.419 L 203.068 133.800 202.819 137.600 L 202.570 141.400 200.238 144.500 C 197.369 148.314,197.432 148.319,197.756 144.300 C 197.902 142.485,197.837 137.490,197.611 133.200 C 196.721 116.302,196.134 112.765,192.723 103.741 C 189.872 96.198,188.874 95.439,185.829 98.500 M106.909 104.400 C 106.909 105.390,106.987 105.795,107.082 105.300 C 107.178 104.805,107.178 103.995,107.082 103.500 C 106.987 103.005,106.909 103.410,106.909 104.400 M106.501 109.400 C 106.505 110.280,106.587 110.593,106.683 110.095 C 106.779 109.598,106.775 108.878,106.675 108.495 C 106.575 108.113,106.496 108.520,106.501 109.400 M163.000 114.800 C 164.528 116.340,165.869 117.600,165.979 117.600 C 166.089 117.600,164.928 116.340,163.400 114.800 C 161.872 113.260,160.531 112.000,160.421 112.000 C 160.311 112.000,161.472 113.260,163.000 114.800 M267.492 117.075 C 267.322 117.337,267.114 118.957,267.030 120.675 C 266.575 129.969,261.617 139.609,252.744 148.453 C 248.224 152.959,248.062 153.181,247.624 155.453 C 247.376 156.744,247.002 158.108,246.792 158.485 C 246.502 159.007,246.546 159.119,246.976 158.954 C 247.286 158.835,247.664 157.986,247.815 157.069 C 248.307 154.081,249.059 152.952,253.493 148.544 C 261.354 140.730,265.610 132.948,267.409 123.100 C 268.044 119.623,268.092 116.150,267.492 117.075 M106.124 123.000 C 106.126 124.320,106.201 124.812,106.290 124.093 C 106.379 123.374,106.377 122.294,106.286 121.693 C 106.195 121.092,106.122 121.680,106.124 123.000 M106.493 132.800 C 106.493 133.570,106.575 133.885,106.676 133.500 C 106.776 133.115,106.776 132.485,106.676 132.100 C 106.575 131.715,106.493 132.030,106.493 132.800 M202.696 147.100 C 202.141 147.925,200.937 149.635,200.021 150.900 C 199.105 152.165,198.501 153.200,198.678 153.199 C 198.855 153.199,199.630 152.263,200.400 151.120 C 201.170 149.977,202.384 148.267,203.097 147.321 C 203.811 146.374,204.240 145.600,204.051 145.600 C 203.861 145.600,203.252 146.275,202.696 147.100 M197.391 154.817 C 196.448 156.641,194.736 161.270,194.932 161.466 C 195.023 161.556,195.581 160.318,196.173 158.715 C 196.765 157.112,197.522 155.379,197.857 154.865 C 198.191 154.351,198.373 153.839,198.261 153.728 C 198.150 153.617,197.758 154.107,197.391 154.817 M193.621 164.821 C 193.143 166.396,192.832 167.765,192.930 167.864 C 193.029 167.962,193.501 166.754,193.979 165.179 C 194.457 163.604,194.768 162.235,194.670 162.136 C 194.571 162.038,194.099 163.246,193.621 164.821 M192.229 169.429 C 192.081 170.015,192.051 170.584,192.161 170.694 C 192.271 170.804,192.481 170.415,192.629 169.829 C 192.776 169.242,192.806 168.673,192.696 168.563 C 192.586 168.453,192.376 168.842,192.229 169.429 M191.438 172.400 C 191.283 173.170,190.704 175.572,190.150 177.739 C 189.597 179.905,189.230 181.763,189.335 181.869 C 189.562 182.095,189.625 181.883,190.996 176.279 C 191.577 173.903,191.978 171.743,191.886 171.479 C 191.795 171.216,191.593 171.630,191.438 172.400 M210.388 178.300 L 207.800 181.000 210.500 178.412 C 211.985 176.988,213.200 175.773,213.200 175.712 C 213.200 175.417,212.793 175.792,210.388 178.300 M125.600 179.800 C 126.795 181.010,127.863 182.000,127.973 182.000 C 128.083 182.000,127.195 181.010,126.000 179.800 C 124.805 178.590,123.737 177.600,123.627 177.600 C 123.517 177.600,124.405 178.590,125.600 179.800 M188.622 183.822 C 188.472 184.625,188.438 185.372,188.548 185.482 C 188.658 185.592,188.872 185.025,189.022 184.222 C 189.173 183.419,189.206 182.673,189.096 182.563 C 188.986 182.453,188.773 183.019,188.622 183.822 M184.147 186.498 C 183.937 186.994,183.872 188.030,184.004 188.800 C 184.236 190.165,184.250 190.147,184.562 188.074 C 184.913 185.743,184.743 185.096,184.147 186.498 M187.692 188.210 C 186.837 192.781,186.288 196.822,186.495 197.028 C 186.609 197.142,186.909 195.743,187.162 193.918 C 187.415 192.093,187.813 189.750,188.048 188.711 C 188.282 187.673,188.399 186.597,188.307 186.321 C 188.215 186.045,187.938 186.895,187.692 188.210 M183.385 192.585 C 183.230 193.823,183.200 194.934,183.319 195.052 C 183.437 195.170,183.661 194.254,183.815 193.015 C 183.970 191.777,184.000 190.666,183.881 190.548 C 183.763 190.430,183.539 191.346,183.385 192.585 M182.663 197.703 C 182.526 198.870,182.291 201.965,182.142 204.579 L 181.870 209.333 180.939 208.166 C 180.427 207.525,179.448 205.952,178.765 204.672 C 178.082 203.391,177.446 202.421,177.351 202.515 C 177.145 202.722,179.518 206.981,180.824 208.747 C 182.127 210.510,182.214 210.229,182.726 202.624 C 183.176 195.924,183.146 193.589,182.663 197.703 M175.831 197.566 C 175.198 198.265,175.191 198.429,175.753 199.466 C 176.091 200.089,176.372 200.420,176.378 200.200 C 176.383 199.980,176.218 199.532,176.011 199.204 C 175.757 198.802,175.827 198.313,176.226 197.704 C 176.950 196.599,176.765 196.534,175.831 197.566 M185.804 201.273 C 185.653 203.323,185.595 205.720,185.675 206.600 C 185.754 207.480,185.972 205.897,186.159 203.082 C 186.345 200.268,186.404 197.871,186.288 197.755 C 186.173 197.640,185.955 199.223,185.804 201.273 M170.407 199.884 C 171.877 200.033,172.102 200.214,172.930 201.924 C 174.514 205.190,176.887 209.318,178.610 211.800 C 180.786 214.936,181.902 217.347,182.620 220.462 C 183.152 222.770,183.187 222.825,183.006 221.069 C 182.726 218.351,181.337 215.161,178.682 211.137 C 177.426 209.232,175.452 205.902,174.297 203.737 L 172.197 199.800 170.496 199.761 L 168.794 199.722 170.407 199.884 M86.985 209.300 L 85.000 211.400 87.100 209.415 C 88.255 208.323,89.200 207.378,89.200 207.315 C 89.200 207.017,88.829 207.349,86.985 209.300 M138.018 209.810 L 139.400 211.420 145.712 211.410 C 150.043 211.403,151.550 211.295,150.512 211.067 C 149.680 210.883,146.930 210.821,144.400 210.929 L 139.800 211.125 138.218 209.662 L 136.637 208.200 138.018 209.810 M185.340 212.000 C 185.340 213.870,185.409 214.635,185.493 213.700 C 185.577 212.765,185.577 211.235,185.493 210.300 C 185.409 209.365,185.340 210.130,185.340 212.000 M155.972 212.580 C 158.047 213.135,159.816 213.518,159.902 213.431 C 160.137 213.196,156.059 212.072,154.000 211.805 C 153.010 211.677,153.898 212.025,155.972 212.580 M197.324 214.600 C 197.326 215.920,197.401 216.412,197.490 215.693 C 197.579 214.974,197.577 213.894,197.486 213.293 C 197.395 212.692,197.322 213.280,197.324 214.600 M163.800 215.379 C 167.932 217.417,172.597 221.056,179.200 227.388 L 183.800 231.800 183.914 229.600 C 183.977 228.390,183.848 226.410,183.628 225.200 C 183.258 223.169,183.240 223.284,183.387 226.693 C 183.591 231.403,183.578 231.405,179.571 227.341 C 173.705 221.393,167.571 216.560,163.489 214.670 C 159.677 212.905,159.923 213.466,163.800 215.379 M142.678 214.656 C 142.169 215.164,142.882 215.630,143.449 215.159 C 143.856 214.821,145.289 214.743,148.313 214.894 C 150.671 215.011,152.060 214.970,151.400 214.801 C 149.913 214.421,143.027 214.307,142.678 214.656 M153.600 215.600 C 154.150 215.776,154.960 215.920,155.400 215.920 C 156.033 215.920,155.992 215.854,155.200 215.600 C 154.650 215.424,153.840 215.280,153.400 215.280 C 152.767 215.280,152.808 215.346,153.600 215.600 M156.400 216.141 C 156.400 216.267,157.144 216.569,158.053 216.814 C 162.397 217.984,167.109 221.076,173.650 227.049 C 182.802 235.407,186.330 240.334,188.649 248.000 C 189.149 249.650,189.561 250.550,189.565 250.000 C 189.642 240.601,169.246 219.137,157.416 216.168 C 156.857 216.028,156.400 216.016,156.400 216.141 M185.680 217.600 C 185.680 218.150,185.824 219.050,186.000 219.600 L 186.320 220.600 186.320 219.600 C 186.320 219.050,186.176 218.150,186.000 217.600 L 185.680 216.600 185.680 217.600 M143.340 220.800 C 143.340 222.670,143.409 223.435,143.493 222.500 C 143.577 221.565,143.577 220.035,143.493 219.100 C 143.409 218.165,143.340 218.930,143.340 220.800 M196.901 220.200 C 196.905 221.080,196.987 221.393,197.083 220.895 C 197.179 220.398,197.175 219.678,197.075 219.295 C 196.975 218.913,196.896 219.320,196.901 220.200 M186.695 225.200 C 186.813 227.730,186.976 229.875,187.055 229.967 C 187.346 230.301,187.144 223.754,186.816 222.200 C 186.599 221.170,186.556 222.238,186.695 225.200 M197.660 227.338 C 197.627 227.964,197.031 229.494,196.337 230.738 C 194.689 233.687,193.198 236.717,193.207 237.098 C 193.211 237.264,194.302 235.369,195.632 232.887 C 197.356 229.670,198.003 228.061,197.885 227.287 L 197.720 226.200 197.660 227.338 M187.416 234.501 C 187.593 236.628,190.126 242.800,190.822 242.800 C 191.144 242.800,193.251 237.918,193.027 237.694 C 192.933 237.599,192.461 238.440,191.979 239.561 C 191.496 240.683,190.947 241.600,190.759 241.600 C 190.261 241.600,188.726 238.464,188.312 236.600 C 187.411 232.549,187.217 232.094,187.416 234.501 M198.652 234.465 C 197.591 236.088,192.799 246.277,192.827 246.851 C 192.842 247.153,193.056 246.950,193.303 246.400 C 198.031 235.869,199.014 234.159,199.927 234.873 C 200.543 235.355,200.550 235.332,200.013 234.600 C 199.690 234.160,199.390 233.739,199.345 233.665 C 199.300 233.591,198.989 233.951,198.652 234.465 M136.985 236.100 L 135.000 238.200 137.100 236.215 C 138.255 235.123,139.200 234.178,139.200 234.115 C 139.200 233.817,138.829 234.149,136.985 236.100 M201.504 236.426 C 202.672 237.763,202.645 237.967,201.066 239.828 C 199.197 242.030,196.898 245.454,196.579 246.511 C 196.431 247.000,195.785 248.549,195.143 249.954 C 194.501 251.359,194.060 252.594,194.164 252.698 C 194.268 252.801,194.612 252.282,194.929 251.543 C 197.399 245.776,200.668 240.514,202.850 238.790 C 203.598 238.199,203.574 238.134,202.115 236.790 C 201.286 236.025,201.011 235.862,201.504 236.426 M77.505 246.283 C 78.002 246.379,78.722 246.375,79.105 246.275 C 79.487 246.175,79.080 246.096,78.200 246.101 C 77.320 246.105,77.007 246.187,77.505 246.283 M84.500 247.076 C 84.885 247.176,85.515 247.176,85.900 247.076 C 86.285 246.975,85.970 246.893,85.200 246.893 C 84.430 246.893,84.115 246.975,84.500 247.076 M88.500 247.476 C 88.885 247.576,89.515 247.576,89.900 247.476 C 90.285 247.375,89.970 247.293,89.200 247.293 C 88.430 247.293,88.115 247.375,88.500 247.476 M193.050 250.600 C 193.171 252.140,193.448 253.580,193.666 253.800 C 194.069 254.207,193.977 253.379,193.200 249.600 C 192.884 248.062,192.862 248.207,193.050 250.600 " stroke="none" fill="#6da09a" fill-rule="evenodd"></path><path id="path4" d="M276.711 93.093 C 277.651 93.178,279.091 93.177,279.911 93.091 C 280.730 93.005,279.960 92.936,278.200 92.937 C 276.440 92.939,275.770 93.009,276.711 93.093 M272.643 93.833 C 272.509 94.181,272.400 95.381,272.400 96.500 C 272.400 98.461,272.095 100.879,271.149 106.400 C 270.905 107.830,270.116 110.620,269.397 112.600 C 268.493 115.091,268.018 117.235,267.853 119.559 C 267.541 123.983,267.961 123.480,268.389 118.917 C 268.574 116.948,269.075 114.560,269.509 113.577 C 271.295 109.540,272.402 103.741,272.900 95.809 C 272.978 94.568,273.220 94.108,274.000 93.715 L 275.000 93.212 273.943 93.206 C 273.344 93.203,272.780 93.474,272.643 93.833 M283.400 93.600 C 284.060 93.768,285.500 93.904,286.600 93.903 L 288.600 93.900 286.800 93.580 C 285.810 93.403,284.370 93.267,283.600 93.277 L 282.200 93.295 283.400 93.600 M253.658 93.955 C 253.307 94.178,253.650 94.281,254.632 94.249 C 255.926 94.207,256.190 94.346,256.434 95.200 C 256.675 96.042,256.727 96.070,256.760 95.380 C 256.834 93.871,255.070 93.061,253.658 93.955 M288.800 94.167 C 288.800 94.259,289.745 94.536,290.900 94.783 C 298.624 96.434,310.121 106.910,316.270 117.900 C 317.852 120.728,318.468 121.287,317.151 118.700 C 313.105 110.753,302.761 99.567,296.600 96.476 C 293.457 94.899,288.800 93.520,288.800 94.167 M185.543 99.515 C 182.751 102.532,180.646 105.202,181.066 105.193 C 181.250 105.189,181.760 104.678,182.200 104.056 C 185.897 98.833,188.867 96.672,189.621 98.655 C 189.842 99.236,190.132 99.602,190.265 99.468 C 190.694 99.039,189.209 97.200,188.434 97.200 C 188.023 97.200,186.722 98.242,185.543 99.515 M249.468 101.700 C 247.960 103.295,245.636 105.860,244.304 107.400 C 242.972 108.940,243.566 108.400,245.624 106.200 C 247.681 104.000,250.141 101.435,251.090 100.500 C 252.038 99.565,252.678 98.800,252.513 98.800 C 252.347 98.800,250.977 100.105,249.468 101.700 M190.628 100.800 C 190.772 101.350,191.050 101.971,191.245 102.180 C 191.816 102.791,191.641 101.914,190.969 100.800 L 190.367 99.800 190.628 100.800 M242.800 103.200 C 241.879 104.300,241.216 105.200,241.326 105.200 C 241.436 105.200,242.279 104.300,243.200 103.200 C 244.121 102.100,244.784 101.200,244.674 101.200 C 244.564 101.200,243.721 102.100,242.800 103.200 M120.909 106.000 C 120.909 106.990,120.987 107.395,121.082 106.900 C 121.178 106.405,121.178 105.595,121.082 105.100 C 120.987 104.605,120.909 105.010,120.909 106.000 M192.400 105.013 C 192.400 105.130,192.744 106.255,193.164 107.513 C 193.584 108.771,194.136 110.583,194.390 111.540 C 194.645 112.498,194.951 113.182,195.072 113.061 C 195.306 112.827,192.885 104.800,192.580 104.800 C 192.481 104.800,192.400 104.896,192.400 105.013 M124.493 106.800 C 124.493 107.570,124.575 107.885,124.676 107.500 C 124.776 107.115,124.776 106.485,124.676 106.100 C 124.575 105.715,124.493 106.030,124.493 106.800 M179.048 107.756 C 177.710 109.699,175.405 114.600,174.607 117.200 C 174.079 118.923,174.897 117.697,175.608 115.701 C 176.582 112.966,177.984 110.043,179.204 108.200 C 181.436 104.831,181.309 104.473,179.048 107.756 M235.190 111.844 C 233.545 113.518,231.498 115.408,230.640 116.044 C 229.782 116.680,229.301 117.200,229.571 117.200 C 230.036 117.200,238.834 108.830,238.390 108.810 C 238.274 108.804,236.834 110.170,235.190 111.844 M125.656 113.200 C 125.656 113.530,125.811 114.160,126.000 114.600 C 126.217 115.104,126.344 115.178,126.344 114.800 C 126.344 114.470,126.189 113.840,126.000 113.400 C 125.783 112.896,125.656 112.822,125.656 113.200 M195.280 115.000 C 195.280 115.660,195.424 116.650,195.600 117.200 C 195.911 118.172,195.920 118.167,195.920 117.000 C 195.920 116.340,195.776 115.350,195.600 114.800 C 195.289 113.828,195.280 113.833,195.280 115.000 M234.575 117.700 L 233.400 119.000 234.700 117.825 C 235.415 117.179,236.000 116.594,236.000 116.525 C 236.000 116.216,235.670 116.488,234.575 117.700 M172.818 121.418 C 172.118 123.101,171.612 124.546,171.695 124.628 C 171.778 124.711,172.414 123.397,173.109 121.709 C 173.804 120.021,174.310 118.576,174.232 118.499 C 174.155 118.422,173.519 119.735,172.818 121.418 M196.099 122.200 C 196.088 123.520,196.214 126.130,196.378 128.000 L 196.676 131.400 196.695 128.000 C 196.705 126.130,196.579 123.520,196.415 122.200 L 196.118 119.800 196.099 122.200 M318.050 121.006 C 319.052 123.717,320.564 127.170,320.692 127.041 C 320.912 126.821,318.808 121.508,318.300 121.000 C 318.033 120.733,317.950 120.735,318.050 121.006 M221.260 122.403 C 220.347 123.064,219.600 123.703,219.600 123.823 C 219.600 124.011,221.854 122.477,222.980 121.522 C 223.927 120.719,222.756 121.318,221.260 122.403 M267.254 123.800 C 267.219 124.240,267.089 125.050,266.967 125.600 C 266.775 126.463,266.807 126.503,267.198 125.890 C 267.447 125.499,267.577 124.689,267.486 124.090 C 267.378 123.379,267.297 123.279,267.254 123.800 M217.200 125.800 C 216.228 126.790,215.523 127.600,215.633 127.600 C 215.743 127.600,216.628 126.790,217.600 125.800 C 218.572 124.810,219.277 124.000,219.167 124.000 C 219.057 124.000,218.172 124.810,217.200 125.800 M222.960 125.554 C 222.102 126.188,220.500 127.669,219.400 128.844 C 217.591 130.777,217.667 130.733,220.200 128.382 C 221.740 126.952,223.450 125.481,224.000 125.112 C 224.550 124.744,224.892 124.433,224.760 124.421 C 224.628 124.409,223.818 124.919,222.960 125.554 M171.246 125.828 C 171.221 126.283,172.369 128.602,173.797 130.980 C 175.226 133.359,177.051 136.676,177.853 138.352 C 178.655 140.029,180.072 142.750,181.002 144.400 C 182.539 147.125,182.830 148.116,184.172 155.200 C 184.985 159.490,185.934 164.440,186.281 166.200 C 186.629 167.960,186.927 171.011,186.944 172.980 C 186.968 175.682,187.053 176.222,187.291 175.180 C 187.630 173.699,187.401 169.844,186.781 166.600 C 186.570 165.500,185.660 160.745,184.757 156.033 L 183.115 147.465 179.694 140.833 C 177.812 137.185,175.241 132.490,173.981 130.400 C 172.720 128.310,171.600 126.240,171.491 125.800 C 171.298 125.022,171.292 125.023,171.246 125.828 M266.087 128.810 C 264.640 134.527,259.492 142.569,253.365 148.682 C 248.853 153.186,248.134 154.308,247.909 157.200 C 247.775 158.922,247.234 158.972,256.000 156.451 C 270.623 152.246,277.690 148.513,282.746 142.323 C 286.692 137.494,287.200 138.389,287.200 150.166 C 287.200 161.421,286.560 168.891,284.936 176.600 C 283.186 184.902,276.544 202.786,274.617 204.386 C 274.291 204.656,272.624 206.955,270.912 209.493 C 263.647 220.266,252.034 231.777,244.989 235.188 C 242.488 236.400,234.087 239.173,230.600 239.938 C 229.500 240.180,227.755 240.562,226.723 240.789 C 220.708 242.107,208.596 241.057,205.361 238.937 C 203.858 237.953,202.748 238.548,200.450 241.572 C 198.511 244.122,194.548 251.481,194.915 251.848 C 194.999 251.933,195.833 250.438,196.768 248.526 C 200.926 240.019,202.878 238.317,206.520 240.021 C 211.900 242.539,223.494 242.500,232.600 239.932 C 240.771 237.629,246.246 235.428,249.200 233.258 C 256.632 227.801,265.399 218.483,271.146 209.936 C 272.709 207.610,274.276 205.469,274.627 205.178 C 277.311 202.950,284.571 182.501,286.171 172.663 C 287.610 163.818,288.210 142.634,287.085 140.400 C 286.261 138.764,284.756 138.880,283.477 140.677 C 278.795 147.258,271.117 151.550,256.372 155.829 C 247.561 158.386,248.400 158.282,248.400 156.819 C 248.400 154.768,249.254 153.515,253.680 149.074 C 260.248 142.483,267.623 130.269,266.702 127.507 C 266.613 127.239,266.336 127.826,266.087 128.810 M320.834 128.200 C 320.822 128.640,320.987 129.270,321.200 129.600 C 321.714 130.395,321.714 129.396,321.200 128.200 L 320.856 127.400 320.834 128.200 M213.385 130.100 L 211.400 132.200 213.500 130.215 C 215.451 128.371,215.783 128.000,215.485 128.000 C 215.422 128.000,214.477 128.945,213.385 130.100 M131.256 129.600 C 131.256 129.930,131.411 130.560,131.600 131.000 C 131.817 131.504,131.944 131.578,131.944 131.200 C 131.944 130.870,131.789 130.240,131.600 129.800 C 131.383 129.296,131.256 129.222,131.256 129.600 M321.803 131.600 C 323.172 140.130,323.334 147.800,322.243 152.488 C 321.848 154.186,321.599 155.796,321.689 156.066 C 321.779 156.336,322.201 154.857,322.626 152.778 C 323.809 147.005,323.406 134.285,321.936 131.000 C 321.677 130.420,321.641 130.585,321.803 131.600 M196.939 138.800 C 196.950 143.756,197.053 145.473,197.250 144.000 C 197.412 142.790,197.404 139.460,197.233 136.600 L 196.922 131.400 196.939 138.800 M132.080 133.000 C 132.080 133.440,132.224 134.250,132.400 134.800 C 132.654 135.592,132.720 135.633,132.720 135.000 C 132.720 134.560,132.576 133.750,132.400 133.200 C 132.146 132.408,132.080 132.367,132.080 133.000 M207.978 135.500 L 206.600 137.000 208.100 135.622 C 209.496 134.338,209.784 134.000,209.478 134.000 C 209.412 134.000,208.737 134.675,207.978 135.500 M128.828 135.833 C 128.844 136.475,129.016 137.360,129.210 137.800 C 129.447 138.334,129.486 138.002,129.327 136.800 C 129.046 134.680,128.788 134.180,128.828 135.833 M132.856 137.200 C 132.856 137.530,133.011 138.160,133.200 138.600 C 133.417 139.104,133.544 139.178,133.544 138.800 C 133.544 138.470,133.389 137.840,133.200 137.400 C 132.983 136.896,132.856 136.822,132.856 137.200 M208.181 140.100 L 206.600 141.800 208.300 140.219 C 209.881 138.748,210.184 138.400,209.881 138.400 C 209.816 138.400,209.051 139.165,208.181 140.100 M204.176 144.826 C 203.487 145.545,203.280 145.944,203.677 145.792 C 204.250 145.572,205.876 143.600,205.484 143.600 C 205.410 143.600,204.821 144.152,204.176 144.826 M137.200 147.600 C 137.670 148.260,138.144 148.800,138.254 148.800 C 138.364 148.800,138.070 148.260,137.600 147.600 C 137.130 146.940,136.656 146.400,136.546 146.400 C 136.436 146.400,136.730 146.940,137.200 147.600 M196.326 147.992 C 195.977 150.270,196.168 150.431,197.512 148.995 C 198.137 148.326,198.228 148.139,197.726 148.554 C 196.856 149.273,196.852 149.270,196.726 147.738 L 196.600 146.200 196.326 147.992 M135.164 151.133 C 135.380 151.536,135.871 152.121,136.255 152.433 C 136.687 152.784,136.590 152.504,136.001 151.700 C 134.951 150.265,134.557 149.998,135.164 151.133 M141.191 153.188 C 141.657 153.841,142.242 154.502,142.491 154.656 C 142.741 154.811,142.441 154.276,141.825 153.468 C 140.488 151.715,139.984 151.492,141.191 153.188 M144.000 156.800 C 144.697 157.680,145.357 158.400,145.467 158.400 C 145.577 158.400,145.097 157.680,144.400 156.800 C 143.703 155.920,143.043 155.200,142.933 155.200 C 142.823 155.200,143.303 155.920,144.000 156.800 M140.000 157.600 C 140.697 158.480,141.357 159.200,141.467 159.200 C 141.577 159.200,141.097 158.480,140.400 157.600 C 139.703 156.720,139.043 156.000,138.933 156.000 C 138.823 156.000,139.303 156.720,140.000 157.600 M321.073 157.353 C 320.923 157.745,320.811 158.366,320.825 158.733 C 320.842 159.175,320.981 159.074,321.237 158.434 C 321.449 157.903,321.561 157.282,321.485 157.054 C 321.409 156.827,321.224 156.961,321.073 157.353 M142.856 161.418 C 143.574 162.418,144.430 163.453,144.759 163.718 C 145.087 163.983,144.579 163.165,143.630 161.900 C 141.587 159.178,140.972 158.795,142.856 161.418 M319.215 163.615 C 318.512 165.846,318.016 167.750,318.112 167.846 C 318.208 167.941,318.864 166.198,319.570 163.970 C 320.276 161.743,320.773 159.839,320.673 159.740 C 320.573 159.640,319.917 161.384,319.215 163.615 M151.400 165.992 C 152.500 167.197,153.445 168.262,153.500 168.358 C 153.555 168.455,153.686 168.448,153.790 168.343 C 153.895 168.239,152.950 167.174,151.690 165.977 L 149.400 163.800 151.400 165.992 M147.883 167.689 C 149.084 169.295,150.886 171.240,152.431 172.600 C 153.180 173.260,152.546 172.450,151.022 170.800 C 147.352 166.828,146.916 166.396,147.883 167.689 M266.895 167.265 C 266.623 167.537,266.400 167.938,266.400 168.156 C 266.400 168.375,266.644 168.219,266.942 167.811 C 267.758 166.695,268.721 167.311,268.921 169.078 C 269.073 170.422,269.088 170.390,269.047 168.800 C 268.997 166.886,267.992 166.168,266.895 167.265 M317.473 168.953 C 317.323 169.345,317.211 169.966,317.225 170.333 C 317.242 170.775,317.381 170.674,317.637 170.034 C 317.849 169.503,317.961 168.882,317.885 168.654 C 317.809 168.427,317.624 168.561,317.473 168.953 M157.200 172.200 C 159.060 174.070,160.672 175.600,160.782 175.600 C 160.892 175.600,159.460 174.070,157.600 172.200 C 155.740 170.330,154.128 168.800,154.018 168.800 C 153.908 168.800,155.340 170.330,157.200 172.200 M265.078 171.405 C 264.712 172.172,264.495 172.800,264.596 172.800 C 264.870 172.800,266.084 170.351,265.901 170.168 C 265.814 170.081,265.444 170.638,265.078 171.405 M267.681 172.609 C 267.202 173.594,266.894 174.400,266.997 174.400 C 267.268 174.400,268.884 171.151,268.703 170.970 C 268.619 170.886,268.159 171.624,267.681 172.609 M316.025 173.425 C 315.520 174.643,315.191 175.725,315.295 175.828 C 315.398 175.932,315.873 174.996,316.350 173.750 C 317.477 170.805,317.218 170.546,316.025 173.425 M262.090 175.397 C 260.929 176.573,258.994 178.091,257.790 178.771 C 256.585 179.451,255.600 180.103,255.600 180.220 C 255.600 181.099,262.679 175.855,263.798 174.147 C 264.652 172.844,264.502 172.953,262.090 175.397 M264.557 177.005 C 263.433 178.189,261.318 179.907,259.857 180.824 C 256.797 182.742,256.285 183.361,259.100 181.739 C 261.459 180.379,264.971 177.445,266.046 175.935 C 267.186 174.334,266.893 174.545,264.557 177.005 M161.591 177.188 C 162.057 177.841,162.642 178.502,162.891 178.656 C 163.141 178.811,162.841 178.276,162.225 177.468 C 160.888 175.715,160.384 175.492,161.591 177.188 M314.644 176.843 C 314.548 177.149,314.003 178.664,313.434 180.208 C 312.865 181.753,312.402 183.373,312.404 183.808 C 312.406 184.244,313.026 182.805,313.782 180.612 C 314.538 178.418,315.081 176.547,314.988 176.455 C 314.895 176.362,314.740 176.536,314.644 176.843 M186.200 178.800 C 186.048 179.491,186.007 180.141,186.109 180.242 C 186.211 180.344,186.409 179.853,186.550 179.150 C 186.883 177.483,186.560 177.160,186.200 178.800 M158.664 179.600 C 159.054 180.260,159.519 180.800,159.698 180.800 C 159.877 180.800,159.625 180.260,159.137 179.600 C 158.649 178.940,158.183 178.400,158.102 178.400 C 158.021 178.400,158.274 178.940,158.664 179.600 M254.167 180.914 C 253.709 181.181,252.539 182.044,251.567 182.831 C 250.595 183.619,248.360 185.098,246.600 186.118 C 242.694 188.383,241.748 189.024,243.600 188.152 C 246.001 187.023,250.934 183.946,252.432 182.644 C 253.219 181.960,254.209 181.186,254.632 180.924 C 255.643 180.296,255.241 180.288,254.167 180.914 M185.200 183.400 C 184.926 184.850,184.794 186.128,184.906 186.240 C 185.019 186.352,185.319 185.243,185.575 183.775 C 185.831 182.307,185.963 181.029,185.869 180.935 C 185.774 180.841,185.474 181.950,185.200 183.400 M161.095 182.981 C 161.687 183.961,162.236 184.698,162.315 184.619 C 162.483 184.451,160.477 181.200,160.205 181.200 C 160.103 181.200,160.504 182.001,161.095 182.981 M255.767 183.314 C 255.309 183.581,254.139 184.453,253.167 185.250 C 252.195 186.048,250.815 186.997,250.100 187.360 C 249.385 187.724,248.800 188.110,248.800 188.218 C 248.800 188.648,252.027 186.736,253.708 185.310 C 254.687 184.480,255.828 183.586,256.244 183.324 C 257.239 182.697,256.839 182.689,255.767 183.314 M167.375 184.932 C 167.991 185.739,168.576 186.400,168.675 186.400 C 168.953 186.400,167.221 184.060,166.709 183.744 C 166.459 183.589,166.759 184.124,167.375 184.932 M311.852 185.700 C 311.522 186.930,311.589 190.828,311.955 191.763 C 312.120 192.182,312.255 190.787,312.255 188.663 C 312.255 184.529,312.225 184.309,311.852 185.700 M245.500 190.027 C 244.675 190.463,244.000 190.908,244.000 191.018 C 244.000 191.127,244.720 190.849,245.600 190.400 C 246.480 189.951,247.200 189.497,247.200 189.392 C 247.200 189.130,247.197 189.131,245.500 190.027 M236.180 191.929 C 233.964 193.151,232.085 194.400,232.463 194.400 C 232.673 194.400,236.334 192.307,238.000 191.234 C 239.253 190.427,238.117 190.860,236.180 191.929 M242.200 192.000 C 241.540 192.437,241.180 192.792,241.400 192.788 C 241.801 192.782,243.976 191.223,243.600 191.212 C 243.490 191.208,242.860 191.563,242.200 192.000 M237.780 194.329 C 235.564 195.551,233.685 196.800,234.063 196.800 C 234.273 196.800,237.934 194.707,239.600 193.634 C 240.853 192.827,239.717 193.260,237.780 194.329 M312.426 194.050 C 312.400 195.114,313.162 197.617,314.179 199.800 C 314.486 200.460,315.125 201.990,315.598 203.200 C 317.373 207.735,320.930 213.627,323.670 216.567 C 325.649 218.691,329.960 224.747,330.413 226.040 C 331.332 228.665,329.881 230.971,325.400 234.006 C 316.663 239.923,315.042 242.710,317.171 248.155 C 317.891 249.998,318.030 249.156,317.364 246.981 C 316.021 242.591,317.331 240.338,323.984 235.598 C 333.225 229.015,333.309 227.954,325.375 217.992 C 319.088 210.098,315.033 202.595,313.031 195.149 C 312.656 193.755,312.443 193.369,312.426 194.050 M223.800 198.235 L 222.600 199.266 224.000 198.363 C 225.796 197.204,225.801 197.200,225.367 197.202 C 225.165 197.203,224.460 197.668,223.800 198.235 M185.693 200.000 C 185.693 200.770,185.775 201.085,185.876 200.700 C 185.976 200.315,185.976 199.685,185.876 199.300 C 185.775 198.915,185.693 199.230,185.693 200.000 M216.504 203.364 C 215.017 204.774,213.890 205.989,214.000 206.064 C 214.110 206.139,215.425 204.985,216.922 203.500 C 220.378 200.071,220.079 199.973,216.504 203.364 M182.524 205.800 C 182.526 207.120,182.601 207.612,182.690 206.893 C 182.779 206.174,182.777 205.094,182.686 204.493 C 182.595 203.892,182.522 204.480,182.524 205.800 M216.991 208.100 L 213.800 211.400 217.100 208.209 C 220.165 205.246,220.582 204.800,220.291 204.800 C 220.230 204.800,218.745 206.285,216.991 208.100 M185.293 207.600 C 185.293 208.370,185.375 208.685,185.476 208.300 C 185.576 207.915,185.576 207.285,185.476 206.900 C 185.375 206.515,185.293 206.830,185.293 207.600 M144.300 211.493 C 145.235 211.577,146.765 211.577,147.700 211.493 C 148.635 211.409,147.870 211.340,146.000 211.340 C 144.130 211.340,143.365 211.409,144.300 211.493 M184.893 212.400 C 184.893 213.170,184.975 213.485,185.076 213.100 C 185.176 212.715,185.176 212.085,185.076 211.700 C 184.975 211.315,184.893 211.630,184.893 212.400 M138.305 211.883 C 138.802 211.979,139.522 211.975,139.905 211.875 C 140.287 211.775,139.880 211.696,139.000 211.701 C 138.120 211.705,137.807 211.787,138.305 211.883 M212.922 212.500 C 212.472 212.995,210.906 215.110,209.441 217.200 C 206.402 221.534,207.522 220.313,211.365 215.100 C 213.999 211.529,214.374 210.901,212.922 212.500 M134.600 212.400 C 133.581 212.838,134.632 212.838,136.000 212.400 C 136.804 212.143,136.843 212.077,136.200 212.068 C 135.760 212.062,135.040 212.211,134.600 212.400 M207.200 214.000 C 206.730 214.660,206.436 215.200,206.546 215.200 C 206.656 215.200,207.130 214.660,207.600 214.000 C 208.070 213.340,208.364 212.800,208.254 212.800 C 208.144 212.800,207.670 213.340,207.200 214.000 M129.100 214.427 C 128.275 214.863,127.600 215.308,127.600 215.418 C 127.600 215.596,130.759 214.119,131.167 213.751 C 131.627 213.334,130.425 213.728,129.100 214.427 M141.000 214.800 C 139.893 215.082,139.877 215.109,140.800 215.147 C 141.350 215.169,142.070 215.013,142.400 214.800 C 143.081 214.360,142.729 214.360,141.000 214.800 M137.000 215.600 C 136.496 215.817,136.422 215.944,136.800 215.944 C 137.130 215.944,137.760 215.789,138.200 215.600 C 138.704 215.383,138.778 215.256,138.400 215.256 C 138.070 215.256,137.440 215.411,137.000 215.600 M185.301 216.600 C 185.305 217.480,185.387 217.793,185.483 217.295 C 185.579 216.798,185.575 216.078,185.475 215.695 C 185.375 215.313,185.296 215.720,185.301 216.600 M205.200 216.800 C 204.730 217.460,204.436 218.000,204.546 218.000 C 204.656 218.000,205.130 217.460,205.600 216.800 C 206.070 216.140,206.364 215.600,206.254 215.600 C 206.144 215.600,205.670 216.140,205.200 216.800 M120.300 218.027 C 119.475 218.463,118.800 218.908,118.800 219.018 C 118.800 219.196,121.959 217.719,122.367 217.351 C 122.827 216.934,121.625 217.328,120.300 218.027 M113.800 222.235 L 112.600 223.266 113.900 222.406 C 114.615 221.933,115.200 221.468,115.200 221.373 C 115.200 221.073,115.031 221.178,113.800 222.235 M120.100 222.446 C 118.737 223.319,118.295 223.906,119.500 223.243 C 120.418 222.739,121.856 221.627,121.600 221.619 C 121.490 221.616,120.815 221.988,120.100 222.446 M178.800 227.335 C 180.890 229.491,182.960 231.446,183.400 231.681 C 183.840 231.916,184.110 232.037,184.000 231.949 C 183.890 231.861,181.820 229.906,179.400 227.603 L 175.000 223.416 178.800 227.335 M204.502 224.100 C 203.936 224.815,203.140 226.400,203.346 226.400 C 203.442 226.400,203.893 225.770,204.347 225.000 C 205.173 223.601,205.249 223.157,204.502 224.100 M199.414 225.435 C 199.041 226.004,198.805 226.538,198.889 226.622 C 198.973 226.707,199.358 226.241,199.744 225.588 C 200.606 224.128,200.348 224.009,199.414 225.435 M114.697 225.966 C 113.053 227.019,112.825 227.391,114.275 226.654 C 114.976 226.297,115.661 225.824,115.798 225.603 C 116.119 225.084,116.023 225.115,114.697 225.966 M109.600 228.600 C 109.050 228.914,108.780 229.172,109.000 229.172 C 109.220 229.172,109.850 228.914,110.400 228.600 C 110.950 228.286,111.220 228.028,111.000 228.028 C 110.780 228.028,110.150 228.286,109.600 228.600 M176.800 229.325 C 176.800 229.394,177.385 229.979,178.100 230.625 L 179.400 231.800 178.225 230.500 C 177.130 229.288,176.800 229.016,176.800 229.325 M186.928 232.400 C 186.928 233.830,187.001 234.415,187.089 233.700 C 187.178 232.985,187.178 231.815,187.089 231.100 C 187.001 230.385,186.928 230.970,186.928 232.400 M199.631 232.473 C 198.922 233.613,198.587 234.343,198.885 234.096 C 199.453 233.624,201.373 230.400,201.085 230.400 C 200.994 230.400,200.340 231.333,199.631 232.473 M85.000 231.666 C 83.627 232.423,82.000 234.120,82.000 234.795 C 82.000 236.157,83.821 236.881,85.142 236.045 C 85.492 235.823,85.138 235.719,84.142 235.751 C 81.367 235.839,81.993 233.907,85.446 231.724 C 86.399 231.121,86.066 231.078,85.000 231.666 M192.501 247.800 C 192.505 248.680,192.587 248.993,192.683 248.495 C 192.779 247.998,192.775 247.278,192.675 246.895 C 192.575 246.513,192.496 246.920,192.501 247.800 M194.139 253.113 C 194.012 253.596,193.750 253.892,193.555 253.772 C 193.360 253.651,193.200 253.743,193.200 253.976 C 193.200 254.209,193.374 254.400,193.586 254.400 C 194.085 254.400,194.941 252.808,194.617 252.483 C 194.480 252.347,194.265 252.630,194.139 253.113 M318.446 253.660 C 318.421 254.023,317.680 255.278,316.800 256.449 C 314.971 258.883,314.820 260.047,316.032 262.372 C 317.069 264.360,316.840 265.184,314.539 267.748 C 312.372 270.163,312.112 271.149,312.943 273.788 C 313.791 276.476,313.819 282.478,312.996 284.812 C 312.663 285.754,312.479 286.612,312.586 286.720 C 312.693 286.827,312.860 286.664,312.955 286.357 C 313.051 286.051,313.325 285.188,313.565 284.440 C 314.199 282.458,314.097 276.443,313.381 273.649 C 312.659 270.830,312.948 269.945,315.347 267.639 C 317.258 265.804,317.519 264.388,316.391 261.982 C 315.314 259.681,315.472 258.809,317.421 256.307 C 318.290 255.192,318.793 254.160,318.681 253.725 C 318.525 253.126,318.485 253.114,318.446 253.660 M188.682 271.150 C 188.527 271.893,188.421 273.153,188.447 273.950 C 188.486 275.173,188.550 275.056,188.857 273.203 C 189.265 270.741,189.121 269.051,188.682 271.150 M187.632 279.844 C 187.369 282.178,187.233 284.167,187.329 284.263 C 187.567 284.500,187.901 282.422,188.225 278.700 C 188.625 274.095,188.183 274.947,187.632 279.844 M186.677 287.350 C 186.507 288.863,186.451 290.185,186.554 290.287 C 186.843 290.576,187.285 287.095,187.127 285.776 C 187.040 285.053,186.867 285.658,186.677 287.350 M310.982 288.757 C 309.558 290.650,307.808 291.893,305.747 292.476 C 304.896 292.716,304.412 292.988,304.671 293.080 C 306.160 293.609,312.400 289.140,312.400 287.544 C 312.400 286.967,312.199 287.139,310.982 288.757 M268.753 288.275 C 267.447 289.179,265.915 291.004,265.056 292.680 C 263.925 294.887,264.337 294.621,265.975 292.088 C 268.804 287.711,270.516 287.371,278.000 289.700 C 283.170 291.310,288.731 292.602,289.063 292.271 C 289.183 292.150,288.588 291.931,287.741 291.783 C 285.423 291.380,280.988 290.189,277.400 289.005 C 273.064 287.575,270.124 287.327,268.753 288.275 M185.840 294.131 C 185.669 295.634,185.621 296.954,185.732 297.065 C 186.011 297.344,186.517 293.081,186.315 292.153 C 186.225 291.739,186.011 292.629,185.840 294.131 M290.400 292.800 C 291.852 293.265,294.082 293.265,293.000 292.800 C 292.560 292.611,291.570 292.462,290.800 292.468 C 289.527 292.479,289.491 292.509,290.400 292.800 M296.700 293.496 C 298.075 293.574,300.325 293.574,301.700 293.496 C 303.075 293.418,301.950 293.354,299.200 293.354 C 296.450 293.354,295.325 293.418,296.700 293.496 M263.556 295.900 C 261.884 300.239,261.603 301.067,261.623 301.600 C 261.635 301.930,262.148 300.850,262.762 299.200 C 263.377 297.550,264.016 295.885,264.183 295.500 C 264.349 295.115,264.372 294.800,264.233 294.800 C 264.094 294.800,263.789 295.295,263.556 295.900 M184.695 301.068 C 184.319 303.011,183.906 305.050,183.778 305.600 C 183.612 306.313,183.651 306.428,183.916 306.000 C 184.410 305.202,185.747 298.640,185.541 298.022 C 185.452 297.755,185.071 299.126,184.695 301.068 M261.062 303.070 C 260.947 303.471,260.388 305.780,259.821 308.200 C 259.254 310.620,258.504 313.410,258.154 314.400 C 257.373 316.613,255.988 323.436,256.043 324.800 C 256.066 325.350,256.476 323.820,256.956 321.400 C 257.436 318.980,258.208 315.740,258.671 314.200 C 259.941 309.977,261.671 302.737,261.459 302.526 C 261.357 302.424,261.178 302.668,261.062 303.070 M181.848 311.313 C 179.865 317.046,179.825 317.180,180.323 316.400 C 180.937 315.441,183.666 307.596,183.527 307.192 C 183.457 306.990,182.702 308.845,181.848 311.313 M178.460 319.860 C 177.746 321.309,177.245 322.579,177.348 322.682 C 177.451 322.785,178.096 321.659,178.780 320.180 C 180.396 316.688,180.147 316.439,178.460 319.860 M175.621 325.621 C 174.918 326.972,174.434 328.167,174.545 328.279 C 174.657 328.390,175.311 327.365,176.000 326.000 C 176.689 324.635,177.173 323.440,177.076 323.342 C 176.978 323.245,176.324 324.271,175.621 325.621 M255.469 327.156 C 255.321 327.895,255.221 329.063,255.247 329.750 C 255.279 330.612,255.405 330.325,255.655 328.823 C 256.053 326.421,255.897 325.017,255.469 327.156 M173.729 329.443 C 173.181 330.877,169.909 336.203,168.473 338.000 C 162.264 345.767,153.501 355.583,149.114 359.688 C 146.226 362.389,141.542 366.806,138.705 369.501 C 133.141 374.788,126.341 380.834,124.281 382.327 C 120.636 384.968,122.675 387.185,133.927 392.815 C 136.197 393.950,138.141 394.792,138.248 394.686 C 138.354 394.579,136.514 393.566,134.158 392.435 C 125.141 388.107,121.599 385.004,123.841 383.400 C 124.455 382.960,126.053 381.610,127.390 380.400 C 128.728 379.190,130.537 377.607,131.411 376.882 C 132.285 376.157,135.160 373.452,137.800 370.871 C 140.440 368.289,143.950 365.012,145.600 363.588 C 150.988 358.939,153.641 356.275,157.736 351.400 C 159.953 348.760,161.873 346.510,162.003 346.400 C 163.476 345.151,170.383 336.394,171.627 334.200 C 172.125 333.320,172.974 331.826,173.513 330.879 C 174.051 329.933,174.385 329.052,174.255 328.922 C 174.125 328.792,173.889 329.026,173.729 329.443 M254.656 332.459 C 253.842 338.042,253.606 342.387,253.647 351.045 C 253.673 356.520,253.808 361.533,253.947 362.184 C 254.086 362.835,254.200 357.975,254.200 351.384 C 254.200 344.036,254.397 337.869,254.708 335.442 C 254.988 333.264,255.134 331.401,255.034 331.301 C 254.934 331.200,254.764 331.722,254.656 332.459 M254.406 365.433 C 254.409 366.515,254.591 367.670,254.809 368.000 C 255.080 368.411,255.124 367.843,254.947 366.200 C 254.623 363.191,254.398 362.872,254.406 365.433 M255.228 370.276 C 255.213 370.758,255.380 371.264,255.600 371.400 C 256.073 371.692,256.073 371.301,255.600 370.200 C 255.269 369.429,255.255 369.431,255.228 370.276 M256.050 372.200 C 257.620 376.387,262.602 384.243,265.425 386.983 C 269.204 390.651,268.664 392.047,262.513 394.508 C 261.590 394.878,259.971 395.562,258.917 396.030 C 256.535 397.086,255.945 397.311,253.200 398.215 C 250.064 399.246,248.283 400.016,248.508 400.241 C 248.615 400.348,249.849 400.000,251.251 399.468 C 252.653 398.936,255.150 397.997,256.800 397.383 C 268.475 393.035,270.079 391.300,266.221 387.200 C 263.325 384.122,260.969 380.757,258.798 376.600 C 257.014 373.185,255.525 370.801,256.050 372.200 M140.666 395.810 C 146.153 398.318,163.472 403.200,166.884 403.200 C 168.253 403.200,166.347 402.630,162.729 401.957 C 156.294 400.761,144.118 397.116,140.766 395.382 C 140.147 395.062,139.406 394.815,139.120 394.833 C 138.834 394.851,139.530 395.291,140.666 395.810 M244.000 401.475 C 242.350 402.013,240.749 402.536,240.443 402.636 C 240.136 402.737,239.964 402.897,240.060 402.993 C 240.265 403.198,248.000 400.849,248.000 400.581 C 248.000 400.265,247.082 400.470,244.000 401.475 M169.800 403.845 C 177.762 405.691,179.657 406.077,179.846 405.887 C 179.962 405.771,179.459 405.561,178.729 405.419 C 177.230 405.130,172.934 404.135,170.754 403.573 C 169.958 403.368,168.878 403.220,168.354 403.244 C 167.829 403.269,168.480 403.539,169.800 403.845 M238.000 403.600 C 237.467 403.945,237.467 403.988,238.000 403.988 C 238.330 403.988,238.870 403.813,239.200 403.600 C 239.733 403.255,239.733 403.212,239.200 403.212 C 238.870 403.212,238.330 403.387,238.000 403.600 M233.675 404.884 C 232.287 405.324,231.233 405.766,231.333 405.866 C 231.534 406.067,237.200 404.420,237.200 404.161 C 237.200 403.874,236.249 404.069,233.675 404.884 M181.400 406.400 C 182.060 406.568,182.960 406.714,183.400 406.725 L 184.200 406.744 183.400 406.400 C 182.960 406.211,182.060 406.065,181.400 406.075 L 180.200 406.095 181.400 406.400 M228.400 406.400 C 227.636 406.894,228.458 406.894,230.000 406.400 L 231.000 406.080 230.000 406.046 C 229.450 406.027,228.730 406.187,228.400 406.400 M186.200 407.205 C 187.782 407.550,191.889 407.739,191.567 407.451 C 191.475 407.370,189.870 407.202,188.000 407.079 C 185.572 406.920,185.057 406.956,186.200 407.205 M224.000 407.200 L 222.600 407.495 224.000 407.507 C 224.770 407.515,225.850 407.376,226.400 407.200 L 227.400 406.880 226.400 406.893 C 225.850 406.900,224.770 407.038,224.000 407.200 M193.800 408.078 C 196.483 408.631,218.477 408.640,220.800 408.089 C 222.360 407.719,222.173 407.697,219.400 407.925 C 215.282 408.263,200.066 408.264,195.400 407.926 C 192.346 407.705,192.103 407.728,193.800 408.078 " stroke="none" fill="#2c7c74" fill-rule="evenodd"></path></g></svg>