<svg xmlns="http://www.w3.org/2000/svg" xmlns:xlink="http://www.w3.org/1999/xlink" width="500" zoomAndPan="magnify" viewBox="0 0 375 374.999991" height="500" preserveAspectRatio="xMidYMid meet" version="1.0"><defs><g/><clipPath id="18d2a0da65"><path d="M 205 59 L 237.707031 59 L 237.707031 62 L 205 62 Z M 205 59 " clip-rule="nonzero"/></clipPath><clipPath id="f9aa92ccc2"><path d="M 111.320312 60 L 143 60 L 143 65 L 111.320312 65 Z M 111.320312 60 " clip-rule="nonzero"/></clipPath><clipPath id="d40f111d7c"><path d="M 164 0.902344 L 170 0.902344 L 170 29 L 164 29 Z M 164 0.902344 " clip-rule="nonzero"/></clipPath><clipPath id="e3ae4abaf1"><path d="M 129 80 L 189 80 L 189 90.832031 L 129 90.832031 Z M 129 80 " clip-rule="nonzero"/></clipPath><clipPath id="90f139c408"><rect x="0" width="356" y="0" height="286"/></clipPath></defs><g transform="matrix(1, 0, 0, 1, 10, 41)"><g clip-path="url(#90f139c408)"><path fill="#000000" d="M 169.148438 35.390625 C 165.839844 35.921875 162.984375 36.535156 160.332031 37.886719 C 159.25 38.4375 158.46875 39.289062 157.660156 40.136719 C 154.195312 43.78125 150.726562 47.410156 149.367188 52.488281 C 148.570312 55.457031 147.960938 58.417969 148.632812 61.496094 C 148.808594 62.304688 148.910156 63.015625 147.675781 63.054688 C 146.453125 63.09375 146.417969 62.328125 146.304688 61.457031 C 145.699219 56.742188 146.882812 52.300781 148.921875 48.199219 C 152.339844 41.320312 157.191406 36.074219 165.175781 34.15625 C 169.691406 33.074219 174.191406 32.609375 178.6875 33.023438 C 181.632812 33.292969 184.515625 34.574219 187.269531 35.898438 C 190.621094 37.511719 193.40625 39.894531 196.027344 42.410156 C 198.308594 44.601562 199.714844 47.472656 200.570312 50.546875 C 201.488281 53.855469 202.296875 57.179688 201.84375 60.675781 C 201.753906 61.355469 201.957031 61.988281 200.960938 62.042969 C 199.859375 62.101562 199.992188 61.117188 200.035156 60.679688 C 200.269531 58.339844 199.667969 56.117188 199.285156 53.863281 C 198.613281 49.902344 196.855469 46.546875 194.058594 43.613281 C 190.390625 39.765625 185.964844 37.246094 180.953125 35.820312 C 176.960938 34.683594 172.835938 34.546875 169.148438 35.390625 Z M 169.148438 35.390625 " fill-opacity="1" fill-rule="nonzero"/><g clip-path="url(#18d2a0da65)"><path fill="#000000" d="M 234.976562 61.480469 C 231.414062 61.90625 227.855469 61.355469 224.292969 61.433594 C 221.402344 61.5 218.507812 61.488281 215.617188 61.488281 C 212.496094 61.488281 209.375 61.472656 206.257812 61.441406 C 205.269531 61.433594 205.417969 60.542969 205.371094 60.007812 C 205.296875 59.140625 206.167969 59.414062 206.570312 59.402344 C 209.144531 59.335938 211.722656 59.351562 214.296875 59.363281 C 218.566406 59.375 222.835938 59.410156 227.109375 59.429688 C 230.148438 59.445312 233.1875 59.476562 236.226562 59.445312 C 236.980469 59.4375 237.5625 59.546875 237.640625 60.390625 C 237.730469 61.34375 236.902344 61.121094 236.390625 61.25 C 235.929688 61.371094 235.449219 61.40625 234.980469 61.480469 Z M 234.976562 61.480469 " fill-opacity="1" fill-rule="nonzero"/></g><g clip-path="url(#f9aa92ccc2)"><path fill="#000000" d="M 138.679688 63.054688 C 134.039062 63.65625 129.375 63.667969 124.707031 63.78125 C 120.929688 63.878906 117.148438 64.140625 113.382812 64.480469 C 112.328125 64.578125 111.835938 63.960938 111.652344 63.367188 C 111.382812 62.492188 112.292969 62.394531 112.925781 62.351562 C 116.054688 62.136719 119.183594 61.914062 122.316406 61.773438 C 125.789062 61.617188 129.265625 61.421875 132.738281 61.46875 C 135.777344 61.507812 138.710938 60.554688 141.753906 60.726562 C 142.332031 60.757812 142.78125 60.601562 142.828125 61.421875 C 142.867188 62.0625 142.746094 62.449219 142.039062 62.539062 C 140.917969 62.6875 139.796875 62.882812 138.679688 63.054688 Z M 138.679688 63.054688 " fill-opacity="1" fill-rule="nonzero"/></g><path fill="#000000" d="M 145.285156 48.417969 C 145.464844 49.429688 144.523438 50.015625 143.351562 49.628906 C 139.648438 48.402344 135.945312 47.15625 132.261719 45.867188 C 128.5625 44.574219 124.769531 43.621094 121.007812 42.550781 C 120.015625 42.269531 119.03125 41.929688 118.105469 41.492188 C 117.566406 41.242188 116.769531 40.914062 117.175781 40.054688 C 117.503906 39.359375 118.136719 39.351562 118.84375 39.5625 C 122.136719 40.535156 125.46875 41.382812 128.730469 42.441406 C 133.695312 44.046875 138.621094 45.777344 143.550781 47.496094 C 144.171875 47.714844 144.929688 47.804688 145.285156 48.417969 Z M 145.285156 48.417969 " fill-opacity="1" fill-rule="nonzero"/><path fill="#000000" d="M 155.40625 33.9375 C 152.5 29.722656 149.972656 25.265625 147.304688 20.898438 C 145.226562 17.496094 142.933594 14.226562 140.742188 10.890625 C 140.34375 10.277344 139.5625 9.558594 140.453125 8.914062 C 141.328125 8.285156 141.914062 9.011719 142.457031 9.738281 C 146.488281 15.148438 149.765625 21.039062 153.335938 26.742188 C 154.230469 28.175781 154.992188 29.71875 156.054688 31.015625 C 157.175781 32.382812 156.847656 33.179688 155.40625 33.9375 Z M 155.40625 33.9375 " fill-opacity="1" fill-rule="nonzero"/><path fill="#000000" d="M 221.261719 21.929688 C 221.832031 21.726562 222.351562 21.816406 222.570312 22.28125 C 222.878906 22.933594 222.414062 23.335938 221.90625 23.734375 C 218.140625 26.710938 214.351562 29.660156 210.652344 32.71875 C 207.496094 35.328125 204.007812 37.460938 200.753906 39.921875 C 200.203125 40.339844 199.671875 40.859375 198.980469 39.941406 C 198.328125 39.070312 198.675781 38.632812 199.398438 38.167969 C 206.601562 33.53125 213.121094 27.996094 219.824219 22.699219 C 220.257812 22.355469 220.648438 21.835938 221.261719 21.929688 Z M 221.261719 21.929688 " fill-opacity="1" fill-rule="nonzero"/><path fill="#000000" d="M 204.542969 8.511719 C 204.328125 9.582031 203.570312 10.664062 202.921875 11.746094 C 198.90625 18.457031 195.105469 25.308594 190.472656 31.640625 C 190 32.285156 189.515625 32.34375 188.996094 32.253906 C 188.316406 32.136719 187.679688 31.914062 188.367188 30.902344 C 191.113281 26.867188 193.867188 22.824219 196.445312 18.679688 C 198.371094 15.582031 200.027344 12.316406 201.820312 9.136719 C 202.246094 8.382812 202.625 7.574219 203.726562 7.578125 C 204.265625 7.582031 204.492188 7.773438 204.542969 8.511719 Z M 204.542969 8.511719 " fill-opacity="1" fill-rule="nonzero"/><path fill="#000000" d="M 144.113281 52.667969 C 143.914062 53.710938 143.902344 54.625 142.515625 54.257812 C 139.109375 53.359375 135.671875 52.566406 132.257812 51.703125 C 127.015625 50.375 121.785156 49.007812 116.539062 47.699219 C 115.648438 47.476562 114.921875 47.207031 115.285156 46.136719 C 115.621094 45.136719 116.4375 45.59375 117.082031 45.753906 C 125.789062 47.90625 134.488281 50.070312 143.1875 52.242188 C 143.535156 52.328125 143.847656 52.542969 144.113281 52.667969 Z M 144.113281 52.667969 " fill-opacity="1" fill-rule="nonzero"/><g clip-path="url(#d40f111d7c)"><path fill="#000000" d="M 166.792969 3.8125 C 167.574219 11.851562 168.488281 19.40625 169.667969 26.929688 C 169.824219 27.9375 169.628906 28.429688 168.484375 28.613281 C 167.109375 28.828125 167.300781 27.691406 167.273438 27.195312 C 167.097656 23.601562 166.421875 20.078125 165.984375 16.523438 C 165.398438 11.707031 165.328125 6.832031 164.390625 2.046875 C 164.304688 1.605469 164.238281 1.085938 164.945312 0.976562 C 165.492188 0.890625 165.90625 1.027344 166.105469 1.539062 C 166.453125 2.417969 166.789062 3.308594 166.792969 3.8125 Z M 166.792969 3.8125 " fill-opacity="1" fill-rule="nonzero"/></g><path fill="#000000" d="M 148.886719 40.941406 C 148.597656 41.414062 148.402344 41.871094 148.089844 42.214844 C 147.738281 42.59375 147.484375 42.125 147.207031 41.976562 C 144.773438 40.691406 143.015625 38.578125 140.988281 36.8125 C 137.800781 34.03125 134.753906 31.089844 131.640625 28.226562 C 130.949219 27.589844 130.261719 26.953125 129.519531 26.382812 C 128.761719 25.796875 128.003906 24.964844 128.625 24.195312 C 129.273438 23.386719 130.238281 24.003906 130.9375 24.644531 C 133.761719 27.238281 136.578125 29.839844 139.421875 32.410156 C 142.097656 34.828125 144.8125 37.203125 147.503906 39.605469 C 147.980469 40.03125 148.425781 40.492188 148.886719 40.941406 Z M 148.886719 40.941406 " fill-opacity="1" fill-rule="nonzero"/><path fill="#000000" d="M 203.984375 50.097656 C 203.570312 49.257812 203.804688 49.023438 204.460938 48.769531 C 208.8125 47.0625 213.125 45.257812 217.59375 43.859375 C 220.761719 42.867188 223.90625 41.792969 227.035156 40.6875 C 227.886719 40.386719 228.703125 40.433594 229.046875 41.160156 C 229.398438 41.902344 228.746094 42.402344 227.992188 42.644531 C 226.0625 43.265625 224.164062 44.019531 222.199219 44.527344 C 218.078125 45.597656 214.167969 47.238281 210.214844 48.765625 C 208.429688 49.453125 206.617188 50.074219 204.851562 50.808594 C 203.707031 51.28125 204.160156 50.234375 203.984375 50.097656 Z M 203.984375 50.097656 " fill-opacity="1" fill-rule="nonzero"/><path fill="#000000" d="M 208.125 17.703125 C 208.128906 18.242188 207.785156 18.609375 207.480469 18.953125 C 203.824219 23.085938 200.332031 27.351562 197.019531 31.765625 C 196.238281 32.808594 195.386719 33.800781 194.625 34.859375 C 194.15625 35.515625 193.816406 35.644531 193.082031 35.113281 C 192.25 34.511719 192.691406 34.15625 193.046875 33.621094 C 195.46875 29.964844 198.253906 26.585938 200.988281 23.171875 C 202.609375 21.144531 204.503906 19.332031 206.1875 17.351562 C 206.539062 16.9375 206.859375 16.933594 207.238281 16.9375 C 207.71875 16.941406 207.828125 17.449219 208.125 17.703125 Z M 208.125 17.703125 " fill-opacity="1" fill-rule="nonzero"/><path fill="#000000" d="M 204.535156 53.984375 C 209.976562 52.765625 215.570312 52.453125 221.113281 51.8125 C 222.890625 51.605469 224.667969 51.4375 226.414062 51.050781 C 227.152344 50.886719 228.019531 50.5625 228.289062 51.617188 C 228.578125 52.730469 227.65625 52.847656 226.882812 52.964844 C 222.554688 53.636719 218.238281 54.347656 213.859375 54.636719 C 211.667969 54.785156 209.484375 55.195312 207.328125 55.640625 C 205.882812 55.9375 204.765625 55.976562 204.535156 53.984375 Z M 204.535156 53.984375 " fill-opacity="1" fill-rule="nonzero"/><path fill="#000000" d="M 184.285156 29.425781 C 184.324219 29.324219 184.425781 29.058594 184.515625 28.789062 C 186.558594 22.609375 188.445312 16.375 191.078125 10.40625 C 191.359375 9.761719 191.46875 8.765625 192.570312 9.183594 C 193.621094 9.582031 193.253906 10.449219 192.976562 11.125 C 190.46875 17.230469 188.476562 23.519531 186.339844 29.757812 C 186.246094 30.035156 186.394531 30.933594 185.566406 30.550781 C 185.09375 30.335938 184.328125 30.445312 184.285156 29.425781 Z M 184.285156 29.425781 " fill-opacity="1" fill-rule="nonzero"/><path fill="#000000" d="M 173.890625 9.429688 C 174.089844 13.675781 174.714844 18.363281 174.632812 23.09375 C 174.609375 24.453125 175.039062 25.757812 174.910156 27.164062 C 174.808594 28.304688 174.121094 27.988281 173.578125 28.0625 C 172.71875 28.183594 172.632812 27.527344 172.632812 26.910156 C 172.632812 23.441406 172.394531 19.992188 172.132812 16.53125 C 171.910156 13.636719 171.886719 10.726562 171.464844 7.84375 C 171.347656 7.058594 171.800781 6.546875 172.507812 6.488281 C 173.117188 6.4375 173.609375 6.785156 173.613281 7.558594 C 173.617188 8.027344 173.746094 8.5 173.890625 9.429688 Z M 173.890625 9.429688 " fill-opacity="1" fill-rule="nonzero"/><path fill="#000000" d="M 153.449219 35.921875 C 151.75 37.332031 151.828125 37.273438 150.410156 35.4375 C 146.746094 30.683594 142.992188 26 139.320312 21.253906 C 138.902344 20.714844 137.832031 20.035156 138.890625 19.253906 C 139.84375 18.546875 140.484375 19.351562 141.054688 20.078125 C 145.183594 25.363281 149.316406 30.640625 153.449219 35.921875 Z M 153.449219 35.921875 " fill-opacity="1" fill-rule="nonzero"/><path fill="#000000" d="M 128.316406 35.695312 C 128.589844 35.796875 129.144531 35.957031 129.660156 36.199219 C 135.015625 38.753906 140.210938 41.636719 145.703125 43.910156 C 146.484375 44.234375 146.9375 44.640625 146.515625 45.648438 C 146.054688 46.742188 145.320312 46.199219 144.839844 45.96875 C 139.28125 43.332031 133.742188 40.648438 128.222656 37.925781 C 127.6875 37.664062 126.949219 37.351562 127.015625 36.535156 C 127.058594 35.988281 127.488281 35.753906 128.316406 35.695312 Z M 128.316406 35.695312 " fill-opacity="1" fill-rule="nonzero"/><path fill="#000000" d="M 183.550781 13.523438 C 183.40625 14.589844 183.257812 15.929688 183.039062 17.253906 C 182.460938 20.769531 181.78125 24.269531 181.289062 27.792969 C 181.140625 28.871094 180.59375 28.761719 179.914062 28.710938 C 179.035156 28.648438 179.058594 28.285156 179.171875 27.433594 C 179.78125 22.78125 180.632812 18.175781 181.398438 13.550781 C 181.527344 12.761719 181.679688 12.144531 182.546875 12.078125 C 183.328125 12.015625 183.519531 12.597656 183.550781 13.523438 Z M 183.550781 13.523438 " fill-opacity="1" fill-rule="nonzero"/><path fill="#000000" d="M 154.511719 16.007812 C 155.65625 15.8125 155.941406 16.59375 156.136719 17.097656 C 157.738281 21.15625 159.519531 25.136719 161.375 29.082031 C 161.871094 30.128906 161.378906 30.574219 160.597656 30.898438 C 159.679688 31.28125 159.613281 30.429688 159.371094 29.898438 C 157.703125 26.179688 155.988281 22.480469 154.414062 18.71875 C 154.058594 17.878906 153.539062 16.730469 154.511719 16.007812 Z M 154.511719 16.007812 " fill-opacity="1" fill-rule="nonzero"/><path fill="#000000" d="M 212.070312 38.1875 C 211.894531 38.765625 211.585938 39.167969 211.027344 39.503906 C 208.273438 41.144531 205.53125 42.804688 202.847656 44.550781 C 202.089844 45.042969 201.835938 44.507812 201.625 44.148438 C 201.175781 43.386719 201.414062 42.785156 202.234375 42.316406 C 204.839844 40.832031 207.417969 39.285156 210.003906 37.761719 C 210.195312 37.648438 210.363281 37.445312 210.566406 37.410156 C 211.230469 37.292969 211.679688 37.664062 212.070312 38.1875 Z M 212.070312 38.1875 " fill-opacity="1" fill-rule="nonzero"/><path fill="#000000" d="M 141.675781 58.234375 C 139.09375 58.140625 136.515625 58.070312 133.9375 57.941406 C 133.296875 57.910156 132.644531 57.703125 132.679688 56.828125 C 132.722656 55.769531 133.570312 55.8125 134.238281 55.824219 C 136.75 55.867188 139.261719 55.933594 141.765625 56.132812 C 142.1875 56.164062 143.144531 55.671875 143.203125 56.78125 C 143.265625 57.882812 142.699219 58.273438 141.675781 58.234375 Z M 141.675781 58.234375 " fill-opacity="1" fill-rule="nonzero"/><path fill="#000000" d="M 155.601562 74.125 C 165.636719 75.285156 174.703125 79.714844 184.234375 82.574219 C 190.539062 84.464844 196.941406 85.648438 203.554688 84.5625 C 208.207031 83.796875 212.617188 82.277344 216.695312 79.886719 C 217.28125 79.542969 217.789062 79.4375 218.304688 79.796875 C 218.984375 80.265625 218.632812 80.808594 218.285156 81.3125 C 218.03125 81.398438 217.675781 81.261719 217.5625 81.652344 C 214.964844 82.699219 212.523438 84.089844 209.835938 84.9375 C 203.617188 86.902344 197.332031 87.296875 190.914062 86.113281 C 184.75 84.976562 178.886719 82.941406 173.011719 80.789062 C 167.542969 78.78125 161.996094 76.949219 156.109375 76.253906 C 151.433594 75.707031 146.757812 75.105469 142.082031 75.34375 C 137.835938 75.5625 133.582031 76.039062 129.429688 77.222656 C 124.515625 78.621094 119.519531 79.726562 114.644531 81.265625 C 114.082031 81.441406 113.671875 81.257812 113.410156 80.851562 C 113.058594 80.300781 113.71875 80.148438 113.972656 79.933594 C 115.5 78.65625 117.457031 78.492188 119.289062 78.035156 C 124.183594 76.804688 128.933594 74.984375 133.980469 74.382812 C 139.519531 73.71875 145.054688 72.964844 150.660156 73.785156 C 152.046875 73.988281 153.492188 73.773438 154.882812 74.121094 C 155.125 74.125 155.363281 74.125 155.601562 74.125 Z M 155.601562 74.125 " fill-opacity="1" fill-rule="nonzero"/><path fill="#000000" d="M 204.578125 79.648438 C 195.492188 79.734375 187.582031 77.933594 179.910156 75.109375 C 173.429688 72.71875 166.855469 71.207031 159.910156 71.679688 C 159.492188 71.710938 159.074219 71.695312 158.65625 71.679688 C 158.105469 71.65625 157.722656 71.363281 157.773438 70.804688 C 157.816406 70.332031 158.046875 69.929688 158.664062 69.902344 C 161.523438 69.78125 164.375 69.75 167.230469 70.007812 C 174.992188 70.71875 181.917969 74.429688 189.410156 76.113281 C 197.027344 77.824219 204.691406 78.75 212.367188 76.96875 C 215.613281 76.214844 218.667969 74.617188 221.785156 73.34375 C 222.757812 72.945312 224.121094 72.144531 224.609375 73.058594 C 225.367188 74.484375 223.621094 74.5625 222.769531 74.9375 C 216.695312 77.585938 210.640625 80.339844 204.578125 79.648438 Z M 204.578125 79.648438 " fill-opacity="1" fill-rule="nonzero"/><g clip-path="url(#e3ae4abaf1)"><path fill="#000000" d="M 144.695312 80.230469 C 155.160156 79.855469 165.773438 82.542969 176.230469 86.125 C 180.03125 87.425781 183.855469 88.679688 187.859375 89.214844 C 188.390625 89.285156 188.832031 89.40625 188.898438 89.957031 C 188.996094 90.726562 188.28125 90.800781 187.820312 90.875 C 185.636719 91.234375 183.585938 90.421875 181.570312 89.84375 C 173.859375 87.628906 166.378906 84.558594 158.433594 83.214844 C 155.816406 82.769531 153.113281 82.601562 150.449219 82.34375 C 146.464844 81.960938 142.5 82.128906 138.527344 82.074219 C 136.15625 82.039062 133.859375 82.601562 131.539062 82.976562 C 131.195312 83.03125 130.855469 83.105469 130.507812 83.144531 C 130.042969 83.195312 129.613281 82.960938 129.496094 82.574219 C 129.351562 82.109375 129.777344 81.898438 130.179688 81.699219 C 131.496094 81.042969 132.9375 80.871094 134.351562 80.660156 C 137.542969 80.1875 140.761719 80.164062 144.695312 80.226562 Z M 144.695312 80.230469 " fill-opacity="1" fill-rule="nonzero"/></g><g fill="#000000" fill-opacity="1"><g transform="translate(34.806672, 139.09712)"><g><path d="M 8.109375 24.0625 C 5.503906 24.632812 3.257812 24.363281 1.375 23.25 C -0.5 22.132812 -1.832031 20.523438 -2.625 18.421875 C -3.414062 16.328125 -3.523438 14.019531 -2.953125 11.5 C -2.378906 8.988281 -0.945312 6.585938 1.34375 4.296875 C 3.632812 2.003906 6.910156 0.125 11.171875 -1.34375 C 10.472656 -2.675781 9.535156 -4.328125 8.359375 -6.296875 C 7.179688 -8.273438 5.96875 -10.390625 4.71875 -12.640625 C 3.476562 -14.898438 2.351562 -17.050781 1.34375 -19.09375 C -0.570312 -22.976562 -1.289062 -26.445312 -0.8125 -29.5 C -0.332031 -32.550781 1.019531 -35.03125 3.25 -36.9375 C 5.476562 -38.851562 8.179688 -39.96875 11.359375 -40.28125 C 13.898438 -40.601562 16.015625 -40.0625 17.703125 -38.65625 C 19.390625 -37.257812 20.390625 -35.429688 20.703125 -33.171875 C 21.023438 -30.910156 20.363281 -28.570312 18.71875 -26.15625 L 16.890625 -26.15625 C 18.234375 -27.875 18.96875 -29.5625 19.09375 -31.21875 C 19.21875 -32.875 18.929688 -34.335938 18.234375 -35.609375 C 17.535156 -36.878906 16.582031 -37.832031 15.375 -38.46875 C 14.164062 -39.101562 12.859375 -39.234375 11.453125 -38.859375 C 9.421875 -38.347656 7.6875 -37.359375 6.25 -35.890625 C 4.820312 -34.429688 3.960938 -32.601562 3.671875 -30.40625 C 3.390625 -28.207031 3.976562 -25.742188 5.4375 -23.015625 C 7.09375 -19.890625 8.765625 -16.941406 10.453125 -14.171875 C 12.140625 -11.410156 13.96875 -8.023438 15.9375 -4.015625 C 18.675781 -5.085938 21.554688 -6.46875 24.578125 -8.15625 C 27.609375 -9.84375 30.535156 -11.878906 33.359375 -14.265625 C 36.191406 -16.660156 38.660156 -19.382812 40.765625 -22.4375 C 41.335938 -22.945312 41.847656 -23.132812 42.296875 -23 C 42.742188 -22.875 42.835938 -22.65625 42.578125 -22.34375 C 39.835938 -18.519531 36.890625 -15.332031 33.734375 -12.78125 C 30.585938 -10.238281 27.519531 -8.1875 24.53125 -6.625 C 21.539062 -5.070312 18.867188 -3.816406 16.515625 -2.859375 C 17.722656 -0.128906 18.535156 2.664062 18.953125 5.53125 C 19.367188 8.394531 19.304688 11.113281 18.765625 13.6875 C 18.222656 16.269531 17.09375 18.46875 15.375 20.28125 C 13.65625 22.101562 11.234375 23.363281 8.109375 24.0625 Z M 8.78125 22.53125 C 10.375 21.957031 11.644531 20.539062 12.59375 18.28125 C 13.550781 16.019531 14 13.25 13.9375 9.96875 C 13.875 6.695312 13.109375 3.3125 11.640625 -0.1875 C 7.566406 1.269531 4.476562 3.113281 2.375 5.34375 C 0.28125 7.570312 -1.019531 9.847656 -1.53125 12.171875 C -2.039062 14.492188 -1.894531 16.578125 -1.09375 18.421875 C -0.300781 20.265625 0.953125 21.613281 2.671875 22.46875 C 4.390625 23.332031 6.425781 23.351562 8.78125 22.53125 Z M 8.78125 22.53125 "/></g></g></g><g fill="#000000" fill-opacity="1"><g transform="translate(75.462916, 139.09712)"><g><path d="M 13.171875 12.21875 C 10.691406 14.0625 8.5 14.984375 6.59375 14.984375 C 5.0625 14.984375 3.816406 14.457031 2.859375 13.40625 C 1.910156 12.363281 1.164062 11.015625 0.625 9.359375 C 0.0820312 7.703125 -0.3125 5.953125 -0.5625 4.109375 C -0.820312 2.265625 -0.984375 0.53125 -1.046875 -1.09375 C -1.109375 -2.71875 -1.140625 -4.007812 -1.140625 -4.96875 C -1.203125 -9.101562 -1.070312 -13.554688 -0.75 -18.328125 C -0.4375 -23.097656 0.0976562 -27.90625 0.859375 -32.75 C 1.816406 -38.726562 3.054688 -44.535156 4.578125 -50.171875 C 6.109375 -55.804688 7.90625 -60.878906 9.96875 -65.390625 C 12.039062 -69.910156 14.347656 -73.488281 16.890625 -76.125 C 19.441406 -78.769531 22.179688 -80.09375 25.109375 -80.09375 C 27.015625 -80.09375 28.601562 -79.359375 29.875 -77.890625 C 31.15625 -76.429688 31.84375 -74.253906 31.9375 -71.359375 C 32.03125 -68.460938 31.3125 -64.847656 29.78125 -60.515625 C 28.257812 -56.191406 25.679688 -51.195312 22.046875 -45.53125 C 18.421875 -39.875 13.488281 -33.546875 7.25 -26.546875 C 6.8125 -24.566406 6.253906 -21.726562 5.578125 -18.03125 C 4.910156 -14.34375 4.390625 -10.53125 4.015625 -6.59375 C 3.878906 -5.507812 3.734375 -3.992188 3.578125 -2.046875 C 3.421875 -0.109375 3.375 1.921875 3.4375 4.046875 C 3.5 6.179688 3.769531 8.0625 4.25 9.6875 C 4.726562 11.3125 5.539062 12.394531 6.6875 12.9375 C 7.832031 13.476562 9.421875 13.082031 11.453125 11.75 C 13.109375 10.664062 14.921875 8.960938 16.890625 6.640625 C 18.867188 4.316406 20.890625 1.722656 22.953125 -1.140625 C 25.023438 -4.003906 27.015625 -6.882812 28.921875 -9.78125 C 30.835938 -12.675781 32.539062 -15.269531 34.03125 -17.5625 C 35.53125 -19.851562 36.691406 -21.507812 37.515625 -22.53125 C 37.710938 -22.71875 38.03125 -22.8125 38.46875 -22.8125 C 38.914062 -22.8125 39.140625 -22.6875 39.140625 -22.4375 C 38.054688 -21.03125 36.75 -19.164062 35.21875 -16.84375 C 33.695312 -14.519531 32.03125 -11.957031 30.21875 -9.15625 C 28.40625 -6.363281 26.507812 -3.566406 24.53125 -0.765625 C 22.5625 2.035156 20.601562 4.582031 18.65625 6.875 C 16.71875 9.164062 14.890625 10.945312 13.171875 12.21875 Z M 7.546875 -29.015625 C 13.273438 -35.828125 17.804688 -41.9375 21.140625 -47.34375 C 24.484375 -52.757812 26.867188 -57.457031 28.296875 -61.4375 C 29.734375 -65.414062 30.421875 -68.707031 30.359375 -71.3125 C 30.296875 -73.925781 29.738281 -75.835938 28.6875 -77.046875 C 27.632812 -78.253906 26.28125 -78.796875 24.625 -78.671875 C 23.226562 -78.472656 21.828125 -77.320312 20.421875 -75.21875 C 19.023438 -73.125 17.660156 -70.390625 16.328125 -67.015625 C 14.992188 -63.640625 13.753906 -59.835938 12.609375 -55.609375 C 11.460938 -51.378906 10.457031 -46.972656 9.59375 -42.390625 C 8.738281 -37.804688 8.054688 -33.347656 7.546875 -29.015625 Z M 7.546875 -29.015625 "/></g></g></g><g fill="#000000" fill-opacity="1"><g transform="translate(112.588004, 139.09712)"><g><path d="M 14.03125 -37.140625 C 16.769531 -37.140625 18.613281 -35.976562 19.5625 -33.65625 C 20.519531 -31.332031 20.554688 -28.453125 19.671875 -25.015625 C 19.410156 -25.015625 19.203125 -25 19.046875 -24.96875 C 18.890625 -24.9375 18.679688 -24.953125 18.421875 -25.015625 C 18.929688 -26.734375 19.125 -28.453125 19 -30.171875 C 18.875 -31.890625 18.394531 -33.304688 17.5625 -34.421875 C 16.738281 -35.535156 15.53125 -35.992188 13.9375 -35.796875 C 12.40625 -35.609375 10.988281 -34.507812 9.6875 -32.5 C 8.382812 -30.5 7.238281 -27.953125 6.25 -24.859375 C 5.269531 -21.773438 4.492188 -18.5 3.921875 -15.03125 C 3.347656 -11.5625 3.0625 -8.285156 3.0625 -5.203125 C 3.0625 -2.117188 3.378906 0.421875 4.015625 2.421875 C 4.648438 4.429688 5.664062 5.535156 7.0625 5.734375 C 8.90625 5.984375 10.703125 5.519531 12.453125 4.34375 C 14.203125 3.164062 15.789062 1.5625 17.21875 -0.46875 C 18.65625 -2.507812 19.851562 -4.707031 20.8125 -7.0625 C 21.769531 -9.414062 22.375 -11.644531 22.625 -13.75 C 21.289062 -14.195312 20.050781 -14.957031 18.90625 -16.03125 C 17.757812 -17.113281 16.976562 -18.289062 16.5625 -19.5625 C 16.144531 -20.84375 16.351562 -21.957031 17.1875 -22.90625 C 18.007812 -23.863281 19.039062 -24.085938 20.28125 -23.578125 C 21.53125 -23.066406 22.597656 -22.03125 23.484375 -20.46875 C 24.378906 -18.914062 24.664062 -16.960938 24.34375 -14.609375 C 26.382812 -13.910156 28.582031 -13.703125 30.9375 -13.984375 C 33.289062 -14.273438 35.644531 -15.101562 38 -16.46875 C 40.351562 -17.832031 42.421875 -19.789062 44.203125 -22.34375 C 44.390625 -22.59375 44.753906 -22.734375 45.296875 -22.765625 C 45.835938 -22.796875 46.109375 -22.6875 46.109375 -22.4375 C 43.878906 -19.3125 41.472656 -16.953125 38.890625 -15.359375 C 36.316406 -13.773438 33.757812 -12.804688 31.21875 -12.453125 C 28.675781 -12.109375 26.351562 -12.285156 24.25 -12.984375 C 23.925781 -10.691406 23.238281 -8.320312 22.1875 -5.875 C 21.144531 -3.425781 19.84375 -1.179688 18.28125 0.859375 C 16.71875 2.898438 14.96875 4.488281 13.03125 5.625 C 11.09375 6.769531 9.070312 7.21875 6.96875 6.96875 C 4.613281 6.644531 2.71875 5.625 1.28125 3.90625 C -0.144531 2.195312 -1.160156 0.00390625 -1.765625 -2.671875 C -2.367188 -5.347656 -2.59375 -8.210938 -2.4375 -11.265625 C -2.28125 -14.316406 -1.785156 -17.367188 -0.953125 -20.421875 C -0.128906 -23.484375 0.992188 -26.269531 2.421875 -28.78125 C 3.859375 -31.300781 5.546875 -33.320312 7.484375 -34.84375 C 9.429688 -36.375 11.613281 -37.140625 14.03125 -37.140625 Z M 18.140625 -21.765625 C 17.816406 -21.128906 17.894531 -20.332031 18.375 -19.375 C 18.851562 -18.425781 19.519531 -17.566406 20.375 -16.796875 C 21.238281 -16.035156 22.050781 -15.53125 22.8125 -15.28125 C 23.007812 -17.125 22.769531 -18.648438 22.09375 -19.859375 C 21.425781 -21.066406 20.695312 -21.84375 19.90625 -22.1875 C 19.113281 -22.539062 18.523438 -22.398438 18.140625 -21.765625 Z M 18.140625 -21.765625 "/></g></g></g><g fill="#000000" fill-opacity="1"><g transform="translate(156.489127, 139.09712)"><g><path d="M 6.296875 4.390625 C 7.828125 4.578125 9.257812 3.78125 10.59375 2 C 11.9375 0.21875 13.195312 -2.132812 14.375 -5.0625 C 15.550781 -7.988281 16.628906 -11.101562 17.609375 -14.40625 C 18.597656 -17.71875 19.519531 -20.851562 20.375 -23.8125 C 21.238281 -26.78125 21.988281 -29.125 22.625 -30.84375 C 23.070312 -32.050781 23.800781 -32.828125 24.8125 -33.171875 C 25.832031 -33.523438 26.753906 -33.460938 27.578125 -32.984375 C 28.410156 -32.503906 28.734375 -31.566406 28.546875 -30.171875 C 28.160156 -27.242188 27.726562 -23.960938 27.25 -20.328125 C 26.78125 -16.703125 26.382812 -13.078125 26.0625 -9.453125 C 25.738281 -5.828125 25.5625 -2.503906 25.53125 0.515625 C 25.5 3.546875 25.722656 5.921875 26.203125 7.640625 C 26.679688 9.359375 27.523438 10.085938 28.734375 9.828125 C 31.085938 9.316406 33.363281 7.4375 35.5625 4.1875 C 37.757812 0.945312 39.941406 -3.46875 42.109375 -9.0625 C 38.984375 -10.78125 36.65625 -12.894531 35.125 -15.40625 C 33.601562 -17.925781 32.710938 -20.503906 32.453125 -23.140625 C 32.203125 -25.785156 32.503906 -28.207031 33.359375 -30.40625 C 34.222656 -32.601562 35.5 -34.304688 37.1875 -35.515625 C 38.875 -36.722656 40.894531 -37.070312 43.25 -36.5625 C 45.414062 -36.113281 46.847656 -34.566406 47.546875 -31.921875 C 48.242188 -29.285156 48.320312 -26.007812 47.78125 -22.09375 C 47.238281 -18.1875 46.109375 -14.097656 44.390625 -9.828125 C 46.234375 -9.316406 48.222656 -9.332031 50.359375 -9.875 C 52.492188 -10.414062 54.59375 -11.335938 56.65625 -12.640625 C 58.726562 -13.953125 60.671875 -15.453125 62.484375 -17.140625 C 64.296875 -18.828125 65.835938 -20.53125 67.109375 -22.25 C 67.304688 -22.5 67.675781 -22.640625 68.21875 -22.671875 C 68.757812 -22.703125 69.03125 -22.59375 69.03125 -22.34375 C 66.601562 -19.15625 63.957031 -16.398438 61.09375 -14.078125 C 58.226562 -11.753906 55.316406 -10.066406 52.359375 -9.015625 C 49.398438 -7.972656 46.519531 -7.769531 43.71875 -8.40625 C 42.257812 -5.21875 40.78125 -2.191406 39.28125 0.671875 C 37.789062 3.535156 36.203125 5.921875 34.515625 7.828125 C 32.828125 9.734375 30.898438 10.816406 28.734375 11.078125 C 25.742188 11.390625 23.515625 10.382812 22.046875 8.0625 C 20.585938 5.738281 19.773438 2.398438 19.609375 -1.953125 C 19.453125 -6.316406 19.789062 -11.363281 20.625 -17.09375 C 18.90625 -12.125 17.390625 -8.144531 16.078125 -5.15625 C 14.773438 -2.164062 13.566406 0.109375 12.453125 1.671875 C 11.335938 3.234375 10.316406 4.300781 9.390625 4.875 C 8.472656 5.445312 7.539062 5.796875 6.59375 5.921875 C 4.488281 6.171875 2.863281 5.5 1.71875 3.90625 C 0.570312 2.320312 -0.222656 0.226562 -0.671875 -2.375 C -1.117188 -4.988281 -1.320312 -7.789062 -1.28125 -10.78125 C -1.25 -13.78125 -1.070312 -16.550781 -0.75 -19.09375 C -0.4375 -21.632812 -0.125 -23.609375 0.1875 -25.015625 C 0.632812 -26.859375 1.238281 -28.144531 2 -28.875 C 2.769531 -29.613281 3.550781 -29.960938 4.34375 -29.921875 C 5.132812 -29.890625 5.785156 -29.617188 6.296875 -29.109375 C 6.804688 -28.609375 7 -28.070312 6.875 -27.5 C 6.613281 -25.90625 6.257812 -23.800781 5.8125 -21.1875 C 5.375 -18.582031 4.945312 -15.847656 4.53125 -12.984375 C 4.125 -10.117188 3.851562 -7.394531 3.71875 -4.8125 C 3.59375 -2.238281 3.71875 -0.09375 4.09375 1.625 C 4.476562 3.34375 5.210938 4.265625 6.296875 4.390625 Z M 42.765625 -10.5 C 44.546875 -14.632812 45.660156 -18.53125 46.109375 -22.1875 C 46.554688 -25.851562 46.476562 -28.863281 45.875 -31.21875 C 45.269531 -33.570312 44.265625 -34.875 42.859375 -35.125 C 40.953125 -35.507812 39.296875 -35.144531 37.890625 -34.03125 C 36.492188 -32.914062 35.445312 -31.367188 34.75 -29.390625 C 34.050781 -27.421875 33.8125 -25.257812 34.03125 -22.90625 C 34.257812 -20.550781 35.070312 -18.273438 36.46875 -16.078125 C 37.863281 -13.890625 39.960938 -12.03125 42.765625 -10.5 Z M 42.765625 -10.5 "/></g></g></g><g fill="#000000" fill-opacity="1"><g transform="translate(223.295179, 139.09712)"><g><path d="M 13.171875 12.21875 C 10.691406 14.0625 8.5 14.984375 6.59375 14.984375 C 5.0625 14.984375 3.816406 14.457031 2.859375 13.40625 C 1.910156 12.363281 1.164062 11.015625 0.625 9.359375 C 0.0820312 7.703125 -0.3125 5.953125 -0.5625 4.109375 C -0.820312 2.265625 -0.984375 0.53125 -1.046875 -1.09375 C -1.109375 -2.71875 -1.140625 -4.007812 -1.140625 -4.96875 C -1.203125 -9.101562 -1.070312 -13.554688 -0.75 -18.328125 C -0.4375 -23.097656 0.0976562 -27.90625 0.859375 -32.75 C 1.816406 -38.726562 3.054688 -44.535156 4.578125 -50.171875 C 6.109375 -55.804688 7.90625 -60.878906 9.96875 -65.390625 C 12.039062 -69.910156 14.347656 -73.488281 16.890625 -76.125 C 19.441406 -78.769531 22.179688 -80.09375 25.109375 -80.09375 C 27.015625 -80.09375 28.601562 -79.359375 29.875 -77.890625 C 31.15625 -76.429688 31.84375 -74.253906 31.9375 -71.359375 C 32.03125 -68.460938 31.3125 -64.847656 29.78125 -60.515625 C 28.257812 -56.191406 25.679688 -51.195312 22.046875 -45.53125 C 18.421875 -39.875 13.488281 -33.546875 7.25 -26.546875 C 6.8125 -24.566406 6.253906 -21.726562 5.578125 -18.03125 C 4.910156 -14.34375 4.390625 -10.53125 4.015625 -6.59375 C 3.878906 -5.507812 3.734375 -3.992188 3.578125 -2.046875 C 3.421875 -0.109375 3.375 1.921875 3.4375 4.046875 C 3.5 6.179688 3.769531 8.0625 4.25 9.6875 C 4.726562 11.3125 5.539062 12.394531 6.6875 12.9375 C 7.832031 13.476562 9.421875 13.082031 11.453125 11.75 C 13.109375 10.664062 14.921875 8.960938 16.890625 6.640625 C 18.867188 4.316406 20.890625 1.722656 22.953125 -1.140625 C 25.023438 -4.003906 27.015625 -6.882812 28.921875 -9.78125 C 30.835938 -12.675781 32.539062 -15.269531 34.03125 -17.5625 C 35.53125 -19.851562 36.691406 -21.507812 37.515625 -22.53125 C 37.710938 -22.71875 38.03125 -22.8125 38.46875 -22.8125 C 38.914062 -22.8125 39.140625 -22.6875 39.140625 -22.4375 C 38.054688 -21.03125 36.75 -19.164062 35.21875 -16.84375 C 33.695312 -14.519531 32.03125 -11.957031 30.21875 -9.15625 C 28.40625 -6.363281 26.507812 -3.566406 24.53125 -0.765625 C 22.5625 2.035156 20.601562 4.582031 18.65625 6.875 C 16.71875 9.164062 14.890625 10.945312 13.171875 12.21875 Z M 7.546875 -29.015625 C 13.273438 -35.828125 17.804688 -41.9375 21.140625 -47.34375 C 24.484375 -52.757812 26.867188 -57.457031 28.296875 -61.4375 C 29.734375 -65.414062 30.421875 -68.707031 30.359375 -71.3125 C 30.296875 -73.925781 29.738281 -75.835938 28.6875 -77.046875 C 27.632812 -78.253906 26.28125 -78.796875 24.625 -78.671875 C 23.226562 -78.472656 21.828125 -77.320312 20.421875 -75.21875 C 19.023438 -73.125 17.660156 -70.390625 16.328125 -67.015625 C 14.992188 -63.640625 13.753906 -59.835938 12.609375 -55.609375 C 11.460938 -51.378906 10.457031 -46.972656 9.59375 -42.390625 C 8.738281 -37.804688 8.054688 -33.347656 7.546875 -29.015625 Z M 7.546875 -29.015625 "/></g></g></g><g fill="#000000" fill-opacity="1"><g transform="translate(260.420267, 139.09712)"><g><path d="M 23.578125 6.296875 C 23.640625 5.597656 23.75 4.3125 23.90625 2.4375 C 24.070312 0.5625 24.25 -1.660156 24.4375 -4.234375 C 24.625 -6.816406 24.878906 -9.523438 25.203125 -12.359375 C 25.523438 -15.191406 25.875 -17.957031 26.25 -20.65625 C 26.632812 -23.363281 27.050781 -25.769531 27.5 -27.875 C 26.15625 -25.132812 24.800781 -22.253906 23.4375 -19.234375 C 22.070312 -16.210938 20.703125 -13.253906 19.328125 -10.359375 C 17.960938 -7.460938 16.59375 -4.835938 15.21875 -2.484375 C 13.851562 -0.128906 12.535156 1.726562 11.265625 3.09375 C 9.992188 4.46875 8.722656 5.125 7.453125 5.0625 C 5.347656 4.9375 3.707031 3.914062 2.53125 2 C 1.351562 0.09375 0.523438 -2.320312 0.046875 -5.25 C -0.429688 -8.175781 -0.640625 -11.242188 -0.578125 -14.453125 C -0.515625 -17.671875 -0.289062 -20.695312 0.09375 -23.53125 C 0.476562 -26.363281 0.957031 -28.640625 1.53125 -30.359375 C 1.90625 -31.503906 2.503906 -32.378906 3.328125 -32.984375 C 4.160156 -33.585938 5.019531 -33.921875 5.90625 -33.984375 C 6.800781 -34.046875 7.503906 -33.804688 8.015625 -33.265625 C 8.523438 -32.722656 8.65625 -31.878906 8.40625 -30.734375 C 7.957031 -28.828125 7.507812 -26.425781 7.0625 -23.53125 C 6.613281 -20.632812 6.226562 -17.59375 5.90625 -14.40625 C 5.59375 -11.226562 5.40625 -8.253906 5.34375 -5.484375 C 5.28125 -2.722656 5.421875 -0.484375 5.765625 1.234375 C 6.117188 2.953125 6.773438 3.78125 7.734375 3.71875 C 8.878906 3.65625 10.148438 2.601562 11.546875 0.5625 C 12.953125 -1.46875 14.5 -4.21875 16.1875 -7.6875 C 17.875 -11.15625 19.671875 -15.066406 21.578125 -19.421875 C 23.484375 -23.785156 25.519531 -28.289062 27.6875 -32.9375 C 28.769531 -35.226562 29.898438 -36.660156 31.078125 -37.234375 C 32.253906 -37.804688 33.269531 -37.867188 34.125 -37.421875 C 34.988281 -36.972656 35.421875 -36.273438 35.421875 -35.328125 C 34.523438 -33.609375 33.773438 -30.867188 33.171875 -27.109375 C 32.566406 -23.359375 32.070312 -18.984375 31.6875 -13.984375 C 31.3125 -8.984375 30.929688 -3.71875 30.546875 1.8125 C 32.140625 0.925781 34.144531 -0.359375 36.5625 -2.046875 C 38.976562 -3.734375 41.570312 -5.675781 44.34375 -7.875 C 47.113281 -10.070312 49.847656 -12.410156 52.546875 -14.890625 C 55.253906 -17.367188 57.722656 -19.882812 59.953125 -22.4375 C 60.078125 -22.625 60.410156 -22.71875 60.953125 -22.71875 C 61.492188 -22.71875 61.765625 -22.59375 61.765625 -22.34375 C 59.160156 -19.21875 56.34375 -16.253906 53.3125 -13.453125 C 50.289062 -10.660156 47.300781 -8.101562 44.34375 -5.78125 C 41.382812 -3.457031 38.679688 -1.484375 36.234375 0.140625 C 33.785156 1.765625 31.828125 2.957031 30.359375 3.71875 C 29.660156 9.257812 28.941406 14.8125 28.203125 20.375 C 27.472656 25.945312 26.613281 31.210938 25.625 36.171875 C 24.644531 41.140625 23.4375 45.53125 22 49.34375 C 20.570312 53.164062 18.867188 56.144531 16.890625 58.28125 C 14.921875 60.414062 12.535156 61.421875 9.734375 61.296875 C 6.929688 61.160156 4.734375 59.898438 3.140625 57.515625 C 1.554688 55.128906 0.695312 51.976562 0.5625 48.0625 C 0.4375 44.15625 1.15625 39.8125 2.71875 35.03125 C 4.28125 30.257812 6.765625 25.390625 10.171875 20.421875 C 13.578125 15.460938 18.046875 10.753906 23.578125 6.296875 Z M 23.484375 8.40625 C 18.585938 12.601562 14.59375 17.039062 11.5 21.71875 C 8.414062 26.394531 6.125 30.960938 4.625 35.421875 C 3.132812 39.878906 2.390625 43.921875 2.390625 47.546875 C 2.390625 51.171875 3.039062 54.082031 4.34375 56.28125 C 5.644531 58.476562 7.539062 59.640625 10.03125 59.765625 C 11.675781 59.828125 13.117188 58.789062 14.359375 56.65625 C 15.609375 54.53125 16.691406 51.632812 17.609375 47.96875 C 18.535156 44.3125 19.363281 40.222656 20.09375 35.703125 C 20.820312 31.179688 21.457031 26.550781 22 21.8125 C 22.539062 17.070312 23.035156 12.601562 23.484375 8.40625 Z M 23.484375 8.40625 "/></g></g></g><g fill="#000000" fill-opacity="1"><g transform="translate(1.468246, 258.220144)"><g><path d="M 27.734375 -33.453125 L 27.734375 -35.4375 L 47.765625 -35.4375 L 47.765625 -33.453125 C 45.859375 -33.453125 44.296875 -33.15625 43.078125 -32.5625 C 41.867188 -31.976562 41.195312 -30.863281 41.0625 -29.21875 L 41.0625 -0.6875 L 38.984375 -0.6875 C 38.984375 -2.207031 38.816406 -3.242188 38.484375 -3.796875 C 38.160156 -4.359375 37.738281 -4.640625 37.21875 -4.640625 C 36.488281 -4.640625 35.773438 -4.359375 35.078125 -3.796875 C 34.390625 -3.242188 33.582031 -2.585938 32.65625 -1.828125 C 31.738281 -1.066406 30.601562 -0.410156 29.25 0.140625 C 27.90625 0.703125 26.21875 0.984375 24.1875 0.984375 C 20.363281 0.984375 16.859375 -0.609375 13.671875 -3.796875 C 10.484375 -6.992188 7.929688 -11.648438 6.015625 -17.765625 C 4.109375 -23.890625 3.15625 -31.257812 3.15625 -39.875 C 3.15625 -45.53125 3.648438 -50.789062 4.640625 -55.65625 C 5.628906 -60.53125 7.039062 -64.8125 8.875 -68.5 C 10.71875 -72.1875 12.90625 -75.066406 15.4375 -77.140625 C 17.976562 -79.210938 20.757812 -80.25 23.78125 -80.25 C 25.757812 -80.25 27.390625 -79.953125 28.671875 -79.359375 C 29.953125 -78.765625 31.148438 -78.15625 32.265625 -77.53125 C 33.390625 -76.90625 34.578125 -76.59375 35.828125 -76.59375 C 36.941406 -76.59375 37.765625 -76.867188 38.296875 -77.421875 C 38.828125 -77.984375 39.171875 -78.523438 39.328125 -79.046875 C 39.492188 -79.578125 39.578125 -79.84375 39.578125 -79.84375 L 41.0625 -79.84375 L 41.0625 -48.859375 C 41.0625 -48.796875 41.0625 -48.742188 41.0625 -48.703125 C 41.0625 -48.671875 41.0625 -48.59375 41.0625 -48.46875 L 39.28125 -48.46875 C 39.28125 -55.707031 38.640625 -61.53125 37.359375 -65.9375 C 36.078125 -70.34375 34.285156 -73.53125 31.984375 -75.5 C 29.679688 -77.476562 26.945312 -78.46875 23.78125 -78.46875 C 20.164062 -78.46875 17.1875 -76.753906 14.84375 -73.328125 C 12.507812 -69.910156 10.800781 -65.289062 9.71875 -59.46875 C 8.632812 -53.644531 8.09375 -47.113281 8.09375 -39.875 C 8.09375 -31.84375 8.71875 -24.882812 9.96875 -19 C 11.21875 -13.113281 13.039062 -8.570312 15.4375 -5.375 C 17.84375 -2.1875 20.789062 -0.59375 24.28125 -0.59375 C 26.445312 -0.59375 28.484375 -1.164062 30.390625 -2.3125 C 32.304688 -3.46875 33.851562 -5.179688 35.03125 -7.453125 C 36.21875 -9.722656 36.8125 -12.535156 36.8125 -15.890625 L 36.8125 -28.828125 C 36.8125 -30.734375 35.9375 -31.976562 34.1875 -32.5625 C 32.445312 -33.15625 30.296875 -33.453125 27.734375 -33.453125 Z M 27.734375 -33.453125 "/></g></g></g><g fill="#000000" fill-opacity="1"><g transform="translate(50.918555, 258.220144)"><g><path d="M 15.5 -1.96875 L 29.90625 -1.96875 C 31.351562 -1.96875 32.585938 -2.59375 33.609375 -3.84375 C 34.628906 -5.09375 35.46875 -6.703125 36.125 -8.671875 C 36.78125 -10.648438 37.320312 -12.722656 37.75 -14.890625 C 38.175781 -17.066406 38.472656 -19.140625 38.640625 -21.109375 C 38.804688 -23.085938 38.921875 -24.703125 38.984375 -25.953125 C 39.054688 -27.203125 39.09375 -27.828125 39.09375 -27.828125 L 40.765625 -27.828125 L 39.1875 0 L 2.171875 0 L 2.171875 -1.96875 C 2.171875 -1.96875 2.628906 -1.984375 3.546875 -2.015625 C 4.472656 -2.054688 5.523438 -2.191406 6.703125 -2.421875 C 7.890625 -2.648438 8.941406 -3.09375 9.859375 -3.75 C 10.785156 -4.40625 11.25 -5.359375 11.25 -6.609375 L 11.25 -72.453125 C 11.25 -73.765625 10.785156 -74.75 9.859375 -75.40625 C 8.941406 -76.0625 7.890625 -76.503906 6.703125 -76.734375 C 5.523438 -76.972656 4.472656 -77.109375 3.546875 -77.140625 C 2.628906 -77.171875 2.171875 -77.1875 2.171875 -77.1875 L 2.171875 -79.0625 L 24.671875 -79.0625 L 24.671875 -77.1875 C 24.671875 -77.1875 24.207031 -77.171875 23.28125 -77.140625 C 22.363281 -77.109375 21.3125 -76.972656 20.125 -76.734375 C 18.945312 -76.503906 17.894531 -76.0625 16.96875 -75.40625 C 16.050781 -74.75 15.59375 -73.765625 15.59375 -72.453125 Z M 15.5 -1.96875 "/></g></g></g><g fill="#000000" fill-opacity="1"><g transform="translate(92.867402, 258.220144)"><g><path d="M 23.390625 -78.078125 C 19.773438 -78.078125 16.796875 -76.378906 14.453125 -72.984375 C 12.117188 -69.597656 10.410156 -64.992188 9.328125 -59.171875 C 8.242188 -53.347656 7.703125 -46.816406 7.703125 -39.578125 C 7.703125 -32.273438 8.257812 -25.710938 9.375 -19.890625 C 10.5 -14.066406 12.210938 -9.457031 14.515625 -6.0625 C 16.816406 -2.675781 19.773438 -0.984375 23.390625 -0.984375 C 27.078125 -0.984375 30.070312 -2.691406 32.375 -6.109375 C 34.675781 -9.535156 36.367188 -14.160156 37.453125 -19.984375 C 38.546875 -25.804688 39.09375 -32.335938 39.09375 -39.578125 C 39.09375 -46.953125 38.53125 -53.53125 37.40625 -59.3125 C 36.289062 -65.101562 34.582031 -69.675781 32.28125 -73.03125 C 29.976562 -76.394531 27.015625 -78.078125 23.390625 -78.078125 Z M 23.390625 0.796875 C 20.367188 0.796875 17.585938 -0.238281 15.046875 -2.3125 C 12.515625 -4.382812 10.328125 -7.265625 8.484375 -10.953125 C 6.640625 -14.640625 5.222656 -18.929688 4.234375 -23.828125 C 3.253906 -28.734375 2.765625 -33.984375 2.765625 -39.578125 C 2.765625 -45.234375 3.253906 -50.492188 4.234375 -55.359375 C 5.222656 -60.234375 6.640625 -64.515625 8.484375 -68.203125 C 10.328125 -71.890625 12.515625 -74.769531 15.046875 -76.84375 C 17.585938 -78.914062 20.367188 -79.953125 23.390625 -79.953125 C 26.421875 -79.953125 29.203125 -78.914062 31.734375 -76.84375 C 34.265625 -74.769531 36.453125 -71.890625 38.296875 -68.203125 C 40.140625 -64.515625 41.550781 -60.234375 42.53125 -55.359375 C 43.519531 -50.492188 44.015625 -45.234375 44.015625 -39.578125 C 44.015625 -33.984375 43.519531 -28.734375 42.53125 -23.828125 C 41.550781 -18.929688 40.140625 -14.640625 38.296875 -10.953125 C 36.453125 -7.265625 34.265625 -4.382812 31.734375 -2.3125 C 29.203125 -0.238281 26.421875 0.796875 23.390625 0.796875 Z M 23.390625 0.796875 "/></g></g></g><g fill="#000000" fill-opacity="1"><g transform="translate(139.159209, 258.220144)"><g><path d="M 61.890625 -77.28125 L 61.890625 -79.265625 L 80.734375 -79.265625 L 80.734375 -77.28125 C 78.367188 -77.28125 76.59375 -76.953125 75.40625 -76.296875 C 74.21875 -75.640625 73.410156 -74.863281 72.984375 -73.96875 C 72.554688 -73.082031 72.28125 -72.28125 72.15625 -71.5625 L 57.15625 0 L 55.765625 0 L 41.359375 -66.421875 L 27.140625 0 L 25.765625 0 L 10.765625 -71.359375 C 10.765625 -71.359375 10.644531 -71.65625 10.40625 -72.25 C 10.175781 -72.84375 9.75 -73.535156 9.125 -74.328125 C 8.5 -75.117188 7.609375 -75.804688 6.453125 -76.390625 C 5.304688 -76.984375 3.78125 -77.28125 1.875 -77.28125 L 1.875 -79.265625 L 23.1875 -79.265625 L 23.1875 -77.28125 C 20.820312 -77.28125 19.0625 -77.015625 17.90625 -76.484375 C 16.757812 -75.960938 16.003906 -75.335938 15.640625 -74.609375 C 15.285156 -73.890625 15.125 -73.203125 15.15625 -72.546875 C 15.1875 -71.890625 15.203125 -71.429688 15.203125 -71.171875 L 27.34375 -11.34375 L 41.84375 -79.265625 L 43.421875 -79.265625 L 57.734375 -12.34375 L 69.875 -71.171875 C 69.945312 -71.492188 70 -71.984375 70.03125 -72.640625 C 70.0625 -73.296875 69.894531 -73.96875 69.53125 -74.65625 C 69.175781 -75.351562 68.40625 -75.960938 67.21875 -76.484375 C 66.03125 -77.015625 64.253906 -77.28125 61.890625 -77.28125 Z M 61.890625 -77.28125 "/></g></g></g><g fill="#000000" fill-opacity="1"><g transform="translate(222.168589, 258.220144)"><g><path d="M 1.96875 -77.1875 L 1.96875 -79.15625 L 24.375 -79.15625 L 24.375 -77.1875 C 24.375 -77.1875 23.910156 -77.1875 22.984375 -77.1875 C 22.066406 -77.1875 21.015625 -77.050781 19.828125 -76.78125 C 18.648438 -76.519531 17.597656 -76.078125 16.671875 -75.453125 C 15.753906 -74.828125 15.296875 -73.859375 15.296875 -72.546875 L 15.296875 -6.3125 C 15.429688 -5.132812 15.957031 -4.234375 16.875 -3.609375 C 17.800781 -2.984375 18.835938 -2.570312 19.984375 -2.375 C 21.140625 -2.175781 22.160156 -2.054688 23.046875 -2.015625 C 23.929688 -1.984375 24.375 -1.96875 24.375 -1.96875 L 24.375 0 L 1.96875 0 L 1.96875 -1.96875 C 1.96875 -1.96875 2.425781 -1.984375 3.34375 -2.015625 C 4.269531 -2.054688 5.328125 -2.191406 6.515625 -2.421875 C 7.703125 -2.648438 8.753906 -3.09375 9.671875 -3.75 C 10.597656 -4.40625 11.0625 -5.359375 11.0625 -6.609375 L 11.0625 -72.546875 C 11.0625 -73.859375 10.597656 -74.828125 9.671875 -75.453125 C 8.753906 -76.078125 7.703125 -76.519531 6.515625 -76.78125 C 5.328125 -77.050781 4.269531 -77.1875 3.34375 -77.1875 C 2.425781 -77.1875 1.96875 -77.1875 1.96875 -77.1875 Z M 1.96875 -77.1875 "/></g></g></g><g fill="#000000" fill-opacity="1"><g transform="translate(248.42365, 258.220144)"><g><path d="M 33.65625 -77.1875 L 33.65625 -79.15625 L 53.890625 -79.15625 L 53.890625 -77.1875 C 53.890625 -77.1875 53.425781 -77.1875 52.5 -77.1875 C 51.582031 -77.1875 50.53125 -77.050781 49.34375 -76.78125 C 48.164062 -76.519531 47.113281 -76.078125 46.1875 -75.453125 C 45.269531 -74.828125 44.8125 -73.859375 44.8125 -72.546875 L 44.71875 0 L 42.84375 0 L 12.9375 -69.578125 L 13.03125 -6.609375 C 13.03125 -5.359375 13.488281 -4.40625 14.40625 -3.75 C 15.332031 -3.09375 16.382812 -2.648438 17.5625 -2.421875 C 18.75 -2.191406 19.800781 -2.054688 20.71875 -2.015625 C 21.644531 -1.984375 22.109375 -1.96875 22.109375 -1.96875 L 22.109375 0 L 1.875 0 L 1.875 -1.96875 C 1.875 -1.96875 2.332031 -1.984375 3.25 -2.015625 C 4.175781 -2.054688 5.226562 -2.191406 6.40625 -2.421875 C 7.59375 -2.648438 8.644531 -3.09375 9.5625 -3.75 C 10.488281 -4.40625 10.953125 -5.359375 10.953125 -6.609375 L 10.953125 -73.046875 C 10.953125 -74.160156 10.507812 -74.992188 9.625 -75.546875 C 8.738281 -76.109375 7.6875 -76.503906 6.46875 -76.734375 C 5.25 -76.972656 4.191406 -77.109375 3.296875 -77.140625 C 2.410156 -77.171875 1.96875 -77.1875 1.96875 -77.1875 L 1.96875 -79.15625 L 13.03125 -79.15625 L 42.734375 -9.96875 L 42.734375 -72.546875 C 42.734375 -73.859375 42.269531 -74.828125 41.34375 -75.453125 C 40.425781 -76.078125 39.375 -76.519531 38.1875 -76.78125 C 37.007812 -77.050781 35.957031 -77.1875 35.03125 -77.1875 C 34.113281 -77.1875 33.65625 -77.1875 33.65625 -77.1875 Z M 33.65625 -77.1875 "/></g></g></g><g fill="#000000" fill-opacity="1"><g transform="translate(303.99355, 258.220144)"><g><path d="M 27.734375 -33.453125 L 27.734375 -35.4375 L 47.765625 -35.4375 L 47.765625 -33.453125 C 45.859375 -33.453125 44.296875 -33.15625 43.078125 -32.5625 C 41.867188 -31.976562 41.195312 -30.863281 41.0625 -29.21875 L 41.0625 -0.6875 L 38.984375 -0.6875 C 38.984375 -2.207031 38.816406 -3.242188 38.484375 -3.796875 C 38.160156 -4.359375 37.738281 -4.640625 37.21875 -4.640625 C 36.488281 -4.640625 35.773438 -4.359375 35.078125 -3.796875 C 34.390625 -3.242188 33.582031 -2.585938 32.65625 -1.828125 C 31.738281 -1.066406 30.601562 -0.410156 29.25 0.140625 C 27.90625 0.703125 26.21875 0.984375 24.1875 0.984375 C 20.363281 0.984375 16.859375 -0.609375 13.671875 -3.796875 C 10.484375 -6.992188 7.929688 -11.648438 6.015625 -17.765625 C 4.109375 -23.890625 3.15625 -31.257812 3.15625 -39.875 C 3.15625 -45.53125 3.648438 -50.789062 4.640625 -55.65625 C 5.628906 -60.53125 7.039062 -64.8125 8.875 -68.5 C 10.71875 -72.1875 12.90625 -75.066406 15.4375 -77.140625 C 17.976562 -79.210938 20.757812 -80.25 23.78125 -80.25 C 25.757812 -80.25 27.390625 -79.953125 28.671875 -79.359375 C 29.953125 -78.765625 31.148438 -78.15625 32.265625 -77.53125 C 33.390625 -76.90625 34.578125 -76.59375 35.828125 -76.59375 C 36.941406 -76.59375 37.765625 -76.867188 38.296875 -77.421875 C 38.828125 -77.984375 39.171875 -78.523438 39.328125 -79.046875 C 39.492188 -79.578125 39.578125 -79.84375 39.578125 -79.84375 L 41.0625 -79.84375 L 41.0625 -48.859375 C 41.0625 -48.796875 41.0625 -48.742188 41.0625 -48.703125 C 41.0625 -48.671875 41.0625 -48.59375 41.0625 -48.46875 L 39.28125 -48.46875 C 39.28125 -55.707031 38.640625 -61.53125 37.359375 -65.9375 C 36.078125 -70.34375 34.285156 -73.53125 31.984375 -75.5 C 29.679688 -77.476562 26.945312 -78.46875 23.78125 -78.46875 C 20.164062 -78.46875 17.1875 -76.753906 14.84375 -73.328125 C 12.507812 -69.910156 10.800781 -65.289062 9.71875 -59.46875 C 8.632812 -53.644531 8.09375 -47.113281 8.09375 -39.875 C 8.09375 -31.84375 8.71875 -24.882812 9.96875 -19 C 11.21875 -13.113281 13.039062 -8.570312 15.4375 -5.375 C 17.84375 -2.1875 20.789062 -0.59375 24.28125 -0.59375 C 26.445312 -0.59375 28.484375 -1.164062 30.390625 -2.3125 C 32.304688 -3.46875 33.851562 -5.179688 35.03125 -7.453125 C 36.21875 -9.722656 36.8125 -12.535156 36.8125 -15.890625 L 36.8125 -28.828125 C 36.8125 -30.734375 35.9375 -31.976562 34.1875 -32.5625 C 32.445312 -33.15625 30.296875 -33.453125 27.734375 -33.453125 Z M 27.734375 -33.453125 "/></g></g></g></g></g></svg>